NotoSansThai-CondensedBold.ufo
<glyph name="koKai-thai" format="2">
  <advance width="518"/>
  <unicode hex="0E01"/>
  <note>
uni0E01
</note>
  <anchor x="466" y="0" name="bottom"/>
  <anchor x="449" y="536" name="top"/>
  <outline>
    <contour>
      <point x="45" y="0" type="line"/>
      <point x="207" y="0" type="line"/>
      <point x="207" y="175" type="line" smooth="yes"/>
      <point x="207" y="226"/>
      <point x="213" y="260"/>
      <point x="250" y="263" type="curve"/>
      <point x="260" y="332" type="line"/>
      <point x="204" y="370" type="line"/>
      <point x="207" y="404"/>
      <point x="215" y="432"/>
      <point x="250" y="432" type="curve" smooth="yes"/>
      <point x="292" y="432"/>
      <point x="304" y="400"/>
      <point x="304" y="337" type="curve" smooth="yes"/>
      <point x="304" y="0" type="line"/>
      <point x="466" y="0" type="line"/>
      <point x="466" y="346" type="line" smooth="yes"/>
      <point x="466" y="489"/>
      <point x="396" y="562"/>
      <point x="255" y="562" type="curve" smooth="yes"/>
      <point x="111" y="562"/>
      <point x="37" y="479"/>
      <point x="37" y="377" type="curve" smooth="yes"/>
      <point x="37" y="353" type="line"/>
      <point x="119" y="314" type="line"/>
      <point x="119" y="310" type="line"/>
      <point x="66" y="290"/>
      <point x="45" y="246"/>
      <point x="45" y="162" type="curve" smooth="yes"/>
    </contour>
  </outline>
</glyph>
<glyph name="khoKhai-thai" format="2">
  <advance width="509"/>
  <unicode hex="0E02"/>
  <note>
uni0E02
</note>
  <anchor x="441" y="0" name="bottom"/>
  <anchor x="457" y="536" name="top"/>
  <outline>
    <contour>
      <point x="252" y="-14" type="curve" smooth="yes"/>
      <point x="385" y="-14"/>
      <point x="457" y="56"/>
      <point x="457" y="194" type="curve" smooth="yes"/>
      <point x="457" y="548" type="line"/>
      <point x="296" y="548" type="line"/>
      <point x="296" y="197" type="line" smooth="yes"/>
      <point x="296" y="143"/>
      <point x="284" y="112"/>
      <point x="252" y="112" type="curve" smooth="yes"/>
      <point x="221" y="112"/>
      <point x="212" y="140"/>
      <point x="212" y="200" type="curve" smooth="yes"/>
      <point x="212" y="236" type="line" smooth="yes"/>
      <point x="212" y="286"/>
      <point x="224" y="304"/>
      <point x="236" y="336" type="curve" smooth="yes"/>
      <point x="249" y="369"/>
      <point x="253" y="398"/>
      <point x="253" y="437" type="curve" smooth="yes"/>
      <point x="253" y="511"/>
      <point x="224" y="557"/>
      <point x="144" y="557" type="curve" smooth="yes"/>
      <point x="114" y="557"/>
      <point x="69" y="550"/>
      <point x="32" y="529" type="curve"/>
      <point x="54" y="429" type="line"/>
      <point x="67" y="437"/>
      <point x="75" y="441"/>
      <point x="83" y="441" type="curve" smooth="yes"/>
      <point x="96" y="441"/>
      <point x="104" y="432"/>
      <point x="104" y="410" type="curve" smooth="yes"/>
      <point x="104" y="384"/>
      <point x="93" y="363"/>
      <point x="78" y="335" type="curve" smooth="yes"/>
      <point x="62" y="305"/>
      <point x="52" y="272"/>
      <point x="52" y="221" type="curve" smooth="yes"/>
      <point x="52" y="185" type="line" smooth="yes"/>
      <point x="52" y="56"/>
      <point x="116" y="-14"/>
    </contour>
  </outline>
</glyph>
<glyph name="khoKhuat-thai" format="2">
  <advance width="518"/>
  <unicode hex="0E03"/>
  <anchor x="442" y="0" name="bottom"/>
  <anchor x="466" y="536" name="top"/>
  <outline>
    <contour>
      <point x="260" y="-14" type="curve" smooth="yes"/>
      <point x="395" y="-14"/>
      <point x="466" y="56"/>
      <point x="466" y="194" type="curve" smooth="yes"/>
      <point x="466" y="548" type="line"/>
      <point x="306" y="548" type="line"/>
      <point x="306" y="197" type="line" smooth="yes"/>
      <point x="306" y="144"/>
      <point x="296" y="112"/>
      <point x="260" y="112" type="curve" smooth="yes"/>
      <point x="223" y="112"/>
      <point x="213" y="141"/>
      <point x="213" y="202" type="curve" smooth="yes"/>
      <point x="213" y="234" type="line" smooth="yes"/>
      <point x="213" y="295"/>
      <point x="227" y="313"/>
      <point x="243" y="349" type="curve" smooth="yes"/>
      <point x="261" y="389"/>
      <point x="273" y="412"/>
      <point x="273" y="477" type="curve" smooth="yes"/>
      <point x="273" y="548" type="line"/>
      <point x="189" y="548" type="line"/>
      <point x="177" y="511" type="line"/>
      <point x="169" y="501"/>
      <point x="161" y="497"/>
      <point x="154" y="497" type="curve" smooth="yes"/>
      <point x="140" y="497"/>
      <point x="134" y="512"/>
      <point x="134" y="548" type="curve"/>
      <point x="29" y="548" type="line"/>
      <point x="29" y="509" type="line" smooth="yes"/>
      <point x="29" y="442"/>
      <point x="57" y="404"/>
      <point x="97" y="404" type="curve" smooth="yes"/>
      <point x="104" y="404"/>
      <point x="113" y="408"/>
      <point x="122" y="414" type="curve"/>
      <point x="124" y="413" type="line"/>
      <point x="122" y="396"/>
      <point x="106" y="377"/>
      <point x="98" y="364" type="curve" smooth="yes"/>
      <point x="67" y="313"/>
      <point x="51" y="275"/>
      <point x="51" y="216" type="curve" smooth="yes"/>
      <point x="51" y="189" type="line" smooth="yes"/>
      <point x="51" y="60"/>
      <point x="115" y="-14"/>
    </contour>
  </outline>
</glyph>
<glyph name="khoKhwai-thai" format="2">
  <advance width="544"/>
  <unicode hex="0E04"/>
  <note>
uni0E04
</note>
  <anchor x="492" y="1" name="bottom"/>
  <anchor x="475" y="536" name="top"/>
  <outline>
    <contour>
      <point x="52" y="0" type="line"/>
      <point x="210" y="0" type="line"/>
      <point x="210" y="51" type="line" smooth="yes"/>
      <point x="210" y="118"/>
      <point x="226" y="174"/>
      <point x="288" y="174" type="curve" smooth="yes"/>
      <point x="300" y="174" type="line"/>
      <point x="300" y="313" type="line"/>
      <point x="288" y="313" type="line" smooth="yes"/>
      <point x="251" y="313"/>
      <point x="231" y="301"/>
      <point x="214" y="249" type="curve"/>
      <point x="210" y="250" type="line"/>
      <point x="210" y="322" type="line" smooth="yes"/>
      <point x="210" y="390"/>
      <point x="225" y="432"/>
      <point x="271" y="432" type="curve" smooth="yes"/>
      <point x="317" y="432"/>
      <point x="332" y="390"/>
      <point x="332" y="322" type="curve" smooth="yes"/>
      <point x="332" y="0" type="line"/>
      <point x="492" y="0" type="line"/>
      <point x="492" y="320" type="line" smooth="yes"/>
      <point x="492" y="477"/>
      <point x="427" y="562"/>
      <point x="274" y="562" type="curve" smooth="yes"/>
      <point x="120" y="562"/>
      <point x="52" y="477"/>
      <point x="52" y="320" type="curve" smooth="yes"/>
    </contour>
  </outline>
</glyph>
<glyph name="khoKhon-thai" format="2">
  <advance width="556"/>
  <unicode hex="0E05"/>
  <anchor x="503" y="1" name="bottom"/>
  <anchor x="487" y="536" name="top"/>
  <outline>
    <contour>
      <point x="52" y="0" type="line"/>
      <point x="210" y="0" type="line"/>
      <point x="210" y="51" type="line" smooth="yes"/>
      <point x="210" y="118"/>
      <point x="226" y="174"/>
      <point x="298" y="174" type="curve" smooth="yes"/>
      <point x="311" y="174" type="line"/>
      <point x="311" y="313" type="line"/>
      <point x="298" y="313" type="line" smooth="yes"/>
      <point x="251" y="313"/>
      <point x="231" y="301"/>
      <point x="214" y="249" type="curve"/>
      <point x="211" y="250" type="line"/>
      <point x="211" y="377" type="line" smooth="yes"/>
      <point x="211" y="418"/>
      <point x="220" y="431"/>
      <point x="232" y="431" type="curve" smooth="yes"/>
      <point x="244" y="431"/>
      <point x="253" y="417"/>
      <point x="255" y="383" type="curve"/>
      <point x="302" y="383" type="line"/>
      <point x="302" y="417"/>
      <point x="313" y="431"/>
      <point x="325" y="431" type="curve" smooth="yes"/>
      <point x="337" y="431"/>
      <point x="344" y="418"/>
      <point x="344" y="377" type="curve" smooth="yes"/>
      <point x="344" y="0" type="line"/>
      <point x="504" y="0" type="line"/>
      <point x="504" y="423" type="line" smooth="yes"/>
      <point x="504" y="517"/>
      <point x="455" y="562"/>
      <point x="384" y="562" type="curve" smooth="yes"/>
      <point x="331" y="562"/>
      <point x="292" y="540"/>
      <point x="280" y="496" type="curve"/>
      <point x="276" y="496" type="line"/>
      <point x="264" y="540"/>
      <point x="225" y="562"/>
      <point x="172" y="562" type="curve" smooth="yes"/>
      <point x="101" y="562"/>
      <point x="52" y="517"/>
      <point x="52" y="423" type="curve" smooth="yes"/>
    </contour>
  </outline>
</glyph>
<glyph name="khoRakhang-thai" format="2">
  <advance width="542"/>
  <unicode hex="0E06"/>
  <anchor x="483" y="0" name="bottom"/>
  <anchor x="490" y="536" name="top"/>
  <outline>
    <contour>
      <point x="348" y="-10" type="curve" smooth="yes"/>
      <point x="445" y="-10"/>
      <point x="490" y="64"/>
      <point x="490" y="194" type="curve" smooth="yes"/>
      <point x="490" y="548" type="line"/>
      <point x="328" y="548" type="line"/>
      <point x="328" y="232" type="line" smooth="yes"/>
      <point x="328" y="157"/>
      <point x="309" y="131"/>
      <point x="280" y="131" type="curve" smooth="yes"/>
      <point x="245" y="131"/>
      <point x="222" y="171"/>
      <point x="222" y="234" type="curve" smooth="yes"/>
      <point x="222" y="241" type="line" smooth="yes"/>
      <point x="222" y="291"/>
      <point x="236" y="308"/>
      <point x="256" y="349" type="curve" smooth="yes"/>
      <point x="278" y="394"/>
      <point x="287" y="421"/>
      <point x="287" y="477" type="curve" smooth="yes"/>
      <point x="287" y="548" type="line"/>
      <point x="196" y="548" type="line"/>
      <point x="184" y="511" type="line"/>
      <point x="176" y="501"/>
      <point x="168" y="497"/>
      <point x="161" y="497" type="curve" smooth="yes"/>
      <point x="147" y="497"/>
      <point x="141" y="512"/>
      <point x="141" y="548" type="curve"/>
      <point x="35" y="548" type="line"/>
      <point x="35" y="509" type="line" smooth="yes"/>
      <point x="35" y="442"/>
      <point x="63" y="404"/>
      <point x="103" y="404" type="curve" smooth="yes"/>
      <point x="110" y="404"/>
      <point x="119" y="408"/>
      <point x="128" y="414" type="curve"/>
      <point x="130" y="413" type="line"/>
      <point x="128" y="397"/>
      <point x="114" y="382"/>
      <point x="103" y="364" type="curve" smooth="yes"/>
      <point x="71" y="312"/>
      <point x="60" y="272"/>
      <point x="60" y="208" type="curve" smooth="yes"/>
      <point x="60" y="0" type="line"/>
      <point x="176" y="0" type="line"/>
      <point x="197" y="86" type="line"/>
      <point x="206" y="86" type="line"/>
      <point x="225" y="31"/>
      <point x="272" y="-10"/>
    </contour>
  </outline>
</glyph>
<glyph name="ngoNgu-thai" format="2">
  <advance width="469"/>
  <unicode hex="0E07"/>
  <note>
uni0E07
</note>
  <anchor x="364" y="0" name="bottom"/>
  <anchor x="398" y="536" name="top"/>
  <outline>
    <contour>
      <point x="116" y="0" type="line"/>
      <point x="197" y="0" type="line" smooth="yes"/>
      <point x="294" y="0"/>
      <point x="339" y="24"/>
      <point x="371" y="63" type="curve" smooth="yes"/>
      <point x="411" y="112"/>
      <point x="442" y="196"/>
      <point x="442" y="301" type="curve" smooth="yes"/>
      <point x="442" y="386"/>
      <point x="422" y="455"/>
      <point x="385" y="501" type="curve" smooth="yes"/>
      <point x="358" y="534"/>
      <point x="321" y="557"/>
      <point x="258" y="557" type="curve" smooth="yes"/>
      <point x="245" y="557"/>
      <point x="219" y="556"/>
      <point x="194" y="547" type="curve"/>
      <point x="217" y="425" type="line"/>
      <point x="222" y="428"/>
      <point x="229" y="428"/>
      <point x="233" y="428" type="curve" smooth="yes"/>
      <point x="260" y="428"/>
      <point x="276" y="384"/>
      <point x="276" y="291" type="curve" smooth="yes"/>
      <point x="276" y="234"/>
      <point x="270" y="194"/>
      <point x="259" y="161" type="curve" smooth="yes"/>
      <point x="251" y="137"/>
      <point x="244" y="130"/>
      <point x="238" y="130" type="curve" smooth="yes"/>
      <point x="237" y="130" type="line"/>
      <point x="161" y="548" type="line"/>
      <point x="-2" y="548" type="line"/>
    </contour>
  </outline>
</glyph>
<glyph name="choChan-thai" format="2">
  <advance width="465"/>
  <unicode hex="0E08"/>
  <anchor x="383" y="0" name="bottom"/>
  <anchor x="387" y="536" name="top"/>
  <outline>
    <contour>
      <point x="71" y="0" type="line"/>
      <point x="202" y="0" type="line" smooth="yes"/>
      <point x="374" y="0"/>
      <point x="439" y="99"/>
      <point x="439" y="279" type="curve" smooth="yes"/>
      <point x="439" y="471"/>
      <point x="361" y="562"/>
      <point x="200" y="562" type="curve" smooth="yes"/>
      <point x="124" y="562"/>
      <point x="72" y="541"/>
      <point x="34" y="519" type="curve"/>
      <point x="34" y="385" type="line"/>
      <point x="63" y="411"/>
      <point x="106" y="434"/>
      <point x="165" y="434" type="curve" smooth="yes"/>
      <point x="228" y="434"/>
      <point x="276" y="394"/>
      <point x="276" y="275" type="curve" smooth="yes"/>
      <point x="276" y="175"/>
      <point x="250" y="122"/>
      <point x="215" y="122" type="curve" smooth="yes"/>
      <point x="214" y="122" type="line"/>
      <point x="214" y="323" type="line"/>
      <point x="39" y="323" type="line"/>
      <point x="39" y="227" type="line"/>
      <point x="71" y="227" type="line"/>
    </contour>
  </outline>
</glyph>
<glyph name="choChing-thai" format="2">
  <advance width="514"/>
  <unicode hex="0E09"/>
  <anchor x="462" y="0" name="bottom"/>
  <anchor x="454" y="536" name="top"/>
  <outline>
    <contour>
      <point x="185" y="-10" type="curve" smooth="yes"/>
      <point x="253" y="-10"/>
      <point x="292" y="32"/>
      <point x="313" y="81" type="curve"/>
      <point x="322" y="81" type="line"/>
      <point x="343" y="0" type="line"/>
      <point x="462" y="0" type="line"/>
      <point x="462" y="326" type="line" smooth="yes"/>
      <point x="462" y="478"/>
      <point x="402" y="562"/>
      <point x="255" y="562" type="curve" smooth="yes"/>
      <point x="180" y="562"/>
      <point x="110" y="540"/>
      <point x="72" y="519" type="curve"/>
      <point x="72" y="385" type="line"/>
      <point x="101" y="409"/>
      <point x="151" y="434"/>
      <point x="214" y="434" type="curve" smooth="yes"/>
      <point x="267" y="434"/>
      <point x="300" y="405"/>
      <point x="300" y="323" type="curve" smooth="yes"/>
      <point x="300" y="246" type="line" smooth="yes"/>
      <point x="300" y="171"/>
      <point x="278" y="130"/>
      <point x="247" y="130" type="curve" smooth="yes"/>
      <point x="224" y="130"/>
      <point x="210" y="155"/>
      <point x="210" y="215" type="curve" smooth="yes"/>
      <point x="210" y="313" type="line"/>
      <point x="57" y="313" type="line"/>
      <point x="57" y="164" type="line" smooth="yes"/>
      <point x="57" y="41"/>
      <point x="99" y="-10"/>
    </contour>
  </outline>
</glyph>
<glyph name="choChang-thai" format="2">
  <advance width="512"/>
  <unicode hex="0E0A"/>
  <anchor x="446" y="0" name="bottom"/>
  <anchor x="475" y="534" name="top"/>
  <outline>
    <contour>
      <point x="263" y="-14" type="curve" smooth="yes"/>
      <point x="400" y="-14"/>
      <point x="471" y="56"/>
      <point x="471" y="194" type="curve" smooth="yes"/>
      <point x="471" y="287" type="line" smooth="yes"/>
      <point x="471" y="336"/>
      <point x="455" y="373"/>
      <point x="424" y="387" type="curve"/>
      <point x="424" y="391" type="line"/>
      <point x="462" y="409"/>
      <point x="481" y="464"/>
      <point x="481" y="548" type="curve"/>
      <point x="321" y="548" type="line"/>
      <point x="321" y="488"/>
      <point x="309" y="432"/>
      <point x="275" y="432" type="curve" smooth="yes"/>
      <point x="269" y="432" type="line"/>
      <point x="269" y="349" type="line"/>
      <point x="274" y="349" type="line" smooth="yes"/>
      <point x="302" y="349"/>
      <point x="311" y="324"/>
      <point x="311" y="286" type="curve" smooth="yes"/>
      <point x="311" y="197" type="line" smooth="yes"/>
      <point x="311" y="145"/>
      <point x="300" y="112"/>
      <point x="262" y="112" type="curve" smooth="yes"/>
      <point x="225" y="112"/>
      <point x="216" y="141"/>
      <point x="216" y="202" type="curve" smooth="yes"/>
      <point x="216" y="236" type="line" smooth="yes"/>
      <point x="216" y="286"/>
      <point x="224" y="304"/>
      <point x="236" y="336" type="curve" smooth="yes"/>
      <point x="249" y="369"/>
      <point x="253" y="398"/>
      <point x="253" y="437" type="curve" smooth="yes"/>
      <point x="253" y="511"/>
      <point x="224" y="557"/>
      <point x="144" y="557" type="curve" smooth="yes"/>
      <point x="114" y="557"/>
      <point x="69" y="550"/>
      <point x="32" y="529" type="curve"/>
      <point x="54" y="429" type="line"/>
      <point x="67" y="437"/>
      <point x="75" y="441"/>
      <point x="83" y="441" type="curve" smooth="yes"/>
      <point x="96" y="441"/>
      <point x="104" y="432"/>
      <point x="104" y="410" type="curve" smooth="yes"/>
      <point x="104" y="384"/>
      <point x="93" y="363"/>
      <point x="78" y="335" type="curve" smooth="yes"/>
      <point x="62" y="305"/>
      <point x="55" y="271"/>
      <point x="55" y="220" type="curve" smooth="yes"/>
      <point x="55" y="185" type="line" smooth="yes"/>
      <point x="55" y="57"/>
      <point x="124" y="-14"/>
    </contour>
  </outline>
</glyph>
<glyph name="soSo-thai" format="2">
  <advance width="514"/>
  <unicode hex="0E0B"/>
  <note>
uni0E0B
</note>
  <anchor x="448" y="0" name="bottom"/>
  <anchor x="476" y="535" name="top"/>
  <outline>
    <contour>
      <point x="262" y="-14" type="curve" smooth="yes"/>
      <point x="402" y="-14"/>
      <point x="472" y="57"/>
      <point x="472" y="194" type="curve" smooth="yes"/>
      <point x="472" y="284" type="line" smooth="yes"/>
      <point x="472" y="339"/>
      <point x="457" y="374"/>
      <point x="426" y="387" type="curve"/>
      <point x="426" y="391" type="line"/>
      <point x="463" y="411"/>
      <point x="483" y="464"/>
      <point x="483" y="548" type="curve"/>
      <point x="322" y="548" type="line"/>
      <point x="322" y="488"/>
      <point x="314" y="432"/>
      <point x="283" y="432" type="curve" smooth="yes"/>
      <point x="280" y="432" type="line"/>
      <point x="280" y="349" type="line"/>
      <point x="282" y="349" type="line" smooth="yes"/>
      <point x="304" y="349"/>
      <point x="312" y="324"/>
      <point x="312" y="286" type="curve" smooth="yes"/>
      <point x="312" y="197" type="line" smooth="yes"/>
      <point x="312" y="145"/>
      <point x="302" y="112"/>
      <point x="262" y="112" type="curve" smooth="yes"/>
      <point x="223" y="112"/>
      <point x="214" y="140"/>
      <point x="214" y="202" type="curve" smooth="yes"/>
      <point x="214" y="237" type="line" smooth="yes"/>
      <point x="214" y="295"/>
      <point x="228" y="313"/>
      <point x="244" y="349" type="curve" smooth="yes"/>
      <point x="262" y="389"/>
      <point x="265" y="412"/>
      <point x="265" y="477" type="curve" smooth="yes"/>
      <point x="265" y="548" type="line"/>
      <point x="190" y="548" type="line"/>
      <point x="178" y="511" type="line"/>
      <point x="170" y="501"/>
      <point x="162" y="497"/>
      <point x="155" y="497" type="curve" smooth="yes"/>
      <point x="141" y="497"/>
      <point x="135" y="512"/>
      <point x="135" y="548" type="curve"/>
      <point x="29" y="548" type="line"/>
      <point x="29" y="509" type="line" smooth="yes"/>
      <point x="29" y="442"/>
      <point x="57" y="404"/>
      <point x="97" y="404" type="curve" smooth="yes"/>
      <point x="104" y="404"/>
      <point x="113" y="408"/>
      <point x="122" y="414" type="curve"/>
      <point x="124" y="413" type="line"/>
      <point x="122" y="396"/>
      <point x="106" y="377"/>
      <point x="98" y="364" type="curve" smooth="yes"/>
      <point x="67" y="313"/>
      <point x="52" y="275"/>
      <point x="52" y="216" type="curve" smooth="yes"/>
      <point x="52" y="189" type="line" smooth="yes"/>
      <point x="52" y="60"/>
      <point x="119" y="-14"/>
    </contour>
  </outline>
</glyph>
<glyph name="choChoe-thai" format="2">
  <advance width="756"/>
  <unicode hex="0E0C"/>
  <anchor x="687" y="0" name="bottom"/>
  <anchor x="704" y="536" name="top"/>
  <outline>
    <contour>
      <point x="173" y="-10" type="curve" smooth="yes"/>
      <point x="212" y="-10"/>
      <point x="244" y="-2"/>
      <point x="263" y="11" type="curve"/>
      <point x="251" y="105" type="line"/>
      <point x="244" y="101"/>
      <point x="235" y="99"/>
      <point x="226" y="99" type="curve" smooth="yes"/>
      <point x="204" y="99"/>
      <point x="196" y="111"/>
      <point x="196" y="140" type="curve" smooth="yes"/>
      <point x="196" y="196" type="line" smooth="yes"/>
      <point x="196" y="247"/>
      <point x="207" y="264"/>
      <point x="244" y="266" type="curve"/>
      <point x="254" y="334" type="line"/>
      <point x="204" y="374" type="line"/>
      <point x="208" y="414"/>
      <point x="222" y="435"/>
      <point x="253" y="435" type="curve" smooth="yes"/>
      <point x="290" y="435"/>
      <point x="301" y="408"/>
      <point x="301" y="342" type="curve" smooth="yes"/>
      <point x="301" y="0" type="line"/>
      <point x="421" y="0" type="line"/>
      <point x="442" y="86" type="line"/>
      <point x="452" y="86" type="line"/>
      <point x="470" y="31"/>
      <point x="507" y="-10"/>
      <point x="580" y="-10" type="curve" smooth="yes"/>
      <point x="673" y="-10"/>
      <point x="704" y="54"/>
      <point x="704" y="178" type="curve" smooth="yes"/>
      <point x="704" y="548" type="line"/>
      <point x="542" y="548" type="line"/>
      <point x="542" y="216" type="line" smooth="yes"/>
      <point x="542" y="155"/>
      <point x="524" y="131"/>
      <point x="506" y="131" type="curve" smooth="yes"/>
      <point x="479" y="131"/>
      <point x="460" y="180"/>
      <point x="460" y="257" type="curve" smooth="yes"/>
      <point x="460" y="358" type="line" smooth="yes"/>
      <point x="460" y="490"/>
      <point x="397" y="562"/>
      <point x="254" y="562" type="curve" smooth="yes"/>
      <point x="110" y="562"/>
      <point x="37" y="480"/>
      <point x="37" y="377" type="curve" smooth="yes"/>
      <point x="37" y="353" type="line"/>
      <point x="119" y="314" type="line"/>
      <point x="118" y="310" type="line"/>
      <point x="65" y="290"/>
      <point x="39" y="258"/>
      <point x="39" y="181" type="curve" smooth="yes"/>
      <point x="39" y="123" type="line" smooth="yes"/>
      <point x="39" y="35"/>
      <point x="83" y="-10"/>
    </contour>
  </outline>
</glyph>
<glyph name="yoYing-thai" format="2">
  <advance width="764"/>
  <unicode hex="0E0D"/>
  <anchor x="688" y="-173" name="bottom"/>
  <anchor x="708" y="536" name="top"/>
  <outline>
    <contour>
      <point x="474" y="-200" type="curve" smooth="yes"/>
      <point x="628" y="-200"/>
      <point x="708" y="-113"/>
      <point x="708" y="70" type="curve" smooth="yes"/>
      <point x="708" y="548" type="line"/>
      <point x="546" y="548" type="line"/>
      <point x="546" y="274" type="line" smooth="yes"/>
      <point x="546" y="197"/>
      <point x="527" y="148"/>
      <point x="498" y="148" type="curve" smooth="yes"/>
      <point x="479" y="148"/>
      <point x="460" y="172"/>
      <point x="460" y="233" type="curve" smooth="yes"/>
      <point x="460" y="358" type="line" smooth="yes"/>
      <point x="460" y="491"/>
      <point x="397" y="562"/>
      <point x="255" y="562" type="curve" smooth="yes"/>
      <point x="110" y="562"/>
      <point x="37" y="481"/>
      <point x="37" y="377" type="curve" smooth="yes"/>
      <point x="37" y="353" type="line"/>
      <point x="119" y="314" type="line"/>
      <point x="118" y="310" type="line"/>
      <point x="65" y="290"/>
      <point x="39" y="258"/>
      <point x="39" y="181" type="curve" smooth="yes"/>
      <point x="39" y="123" type="line" smooth="yes"/>
      <point x="39" y="35"/>
      <point x="83" y="-10"/>
      <point x="173" y="-10" type="curve" smooth="yes"/>
      <point x="212" y="-10"/>
      <point x="244" y="-2"/>
      <point x="263" y="11" type="curve"/>
      <point x="251" y="105" type="line"/>
      <point x="244" y="101"/>
      <point x="235" y="99"/>
      <point x="226" y="99" type="curve" smooth="yes"/>
      <point x="204" y="99"/>
      <point x="196" y="111"/>
      <point x="196" y="140" type="curve" smooth="yes"/>
      <point x="196" y="196" type="line" smooth="yes"/>
      <point x="196" y="247"/>
      <point x="207" y="264"/>
      <point x="244" y="266" type="curve"/>
      <point x="254" y="334" type="line"/>
      <point x="204" y="374" type="line"/>
      <point x="208" y="414"/>
      <point x="225" y="435"/>
      <point x="252" y="435" type="curve" smooth="yes"/>
      <point x="285" y="435"/>
      <point x="302" y="412"/>
      <point x="302" y="347" type="curve" smooth="yes"/>
      <point x="302" y="181" type="line" smooth="yes"/>
      <point x="302" y="61"/>
      <point x="351" y="8"/>
      <point x="434" y="8" type="curve" smooth="yes"/>
      <point x="495" y="8"/>
      <point x="525" y="39"/>
      <point x="544" y="75" type="curve"/>
      <point x="551" y="75" type="line"/>
      <point x="551" y="45" type="line" smooth="yes"/>
      <point x="551" y="-34"/>
      <point x="516" y="-72"/>
      <point x="444" y="-72" type="curve" smooth="yes"/>
      <point x="391" y="-72"/>
      <point x="350" y="-52"/>
      <point x="329" y="-31" type="curve"/>
      <point x="329" y="-166" type="line"/>
      <point x="371" y="-190"/>
      <point x="424" y="-200"/>
    </contour>
  </outline>
</glyph>
<glyph name="doChada-thai" format="2">
  <advance width="535"/>
  <unicode hex="0E0E"/>
  <anchor x="483" y="-200" name="bottom"/>
  <anchor x="452" y="536" name="top"/>
  <outline>
    <contour>
      <point x="66" y="-214" type="line"/>
      <point x="213" y="-214" type="line"/>
      <point x="213" y="-205" type="line" smooth="yes"/>
      <point x="213" y="-176"/>
      <point x="223" y="-157"/>
      <point x="251" y="-157" type="curve" smooth="yes"/>
      <point x="275" y="-157"/>
      <point x="317" y="-177"/>
      <point x="337" y="-214" type="curve"/>
      <point x="483" y="-214" type="line"/>
      <point x="483" y="346" type="line" smooth="yes"/>
      <point x="483" y="489"/>
      <point x="414" y="562"/>
      <point x="270" y="562" type="curve" smooth="yes"/>
      <point x="123" y="562"/>
      <point x="54" y="479"/>
      <point x="54" y="377" type="curve" smooth="yes"/>
      <point x="54" y="353" type="line"/>
      <point x="136" y="314" type="line"/>
      <point x="135" y="310" type="line"/>
      <point x="94" y="296"/>
      <point x="77" y="261"/>
      <point x="77" y="199" type="curve" smooth="yes"/>
      <point x="77" y="137" type="line" smooth="yes"/>
      <point x="77" y="114"/>
      <point x="69" y="103"/>
      <point x="51" y="103" type="curve" smooth="yes"/>
      <point x="46" y="103"/>
      <point x="41" y="104"/>
      <point x="35" y="107" type="curve"/>
      <point x="21" y="19" type="line"/>
      <point x="40" y="7"/>
      <point x="71" y="-3"/>
      <point x="110" y="-3" type="curve" smooth="yes"/>
      <point x="183" y="-3"/>
      <point x="234" y="31"/>
      <point x="234" y="118" type="curve" smooth="yes"/>
      <point x="234" y="192" type="line" smooth="yes"/>
      <point x="234" y="243"/>
      <point x="238" y="265"/>
      <point x="261" y="266" type="curve"/>
      <point x="271" y="334" type="line"/>
      <point x="221" y="370" type="line"/>
      <point x="224" y="404"/>
      <point x="232" y="432"/>
      <point x="267" y="432" type="curve" smooth="yes"/>
      <point x="309" y="432"/>
      <point x="321" y="400"/>
      <point x="321" y="337" type="curve" smooth="yes"/>
      <point x="321" y="-122" type="line"/>
      <point x="347" y="-112" type="line"/>
      <point x="327" y="-68"/>
      <point x="265" y="-33"/>
      <point x="200" y="-33" type="curve" smooth="yes"/>
      <point x="118" y="-33"/>
      <point x="66" y="-82"/>
      <point x="66" y="-197" type="curve" smooth="yes"/>
    </contour>
  </outline>
</glyph>
<glyph name="toPatak-thai" format="2">
  <advance width="535"/>
  <unicode hex="0E0F"/>
  <anchor x="483" y="-200" name="bottom"/>
  <anchor x="452" y="536" name="top"/>
  <outline>
    <contour>
      <point x="40" y="-214" type="line"/>
      <point x="160" y="-214" type="line"/>
      <point x="160" y="-210" type="line" smooth="yes"/>
      <point x="160" y="-189"/>
      <point x="162" y="-162"/>
      <point x="185" y="-162" type="curve" smooth="yes"/>
      <point x="207" y="-162"/>
      <point x="222" y="-188"/>
      <point x="230" y="-214" type="curve"/>
      <point x="266" y="-214" type="line"/>
      <point x="299" y="-163" type="line"/>
      <point x="351" y="-214" type="line"/>
      <point x="483" y="-214" type="line"/>
      <point x="483" y="346" type="line"/>
      <point x="483" y="489"/>
      <point x="414" y="562"/>
      <point x="270" y="562" type="curve" smooth="yes"/>
      <point x="123" y="562"/>
      <point x="54" y="479"/>
      <point x="54" y="377" type="curve" smooth="yes"/>
      <point x="54" y="353" type="line"/>
      <point x="136" y="314" type="line"/>
      <point x="135" y="310" type="line"/>
      <point x="94" y="296"/>
      <point x="77" y="261"/>
      <point x="77" y="199" type="curve" smooth="yes"/>
      <point x="77" y="137" type="line" smooth="yes"/>
      <point x="77" y="114"/>
      <point x="69" y="103"/>
      <point x="51" y="103" type="curve" smooth="yes"/>
      <point x="46" y="103"/>
      <point x="41" y="104"/>
      <point x="35" y="107" type="curve"/>
      <point x="21" y="19" type="line"/>
      <point x="40" y="7"/>
      <point x="71" y="-3"/>
      <point x="110" y="-3" type="curve" smooth="yes"/>
      <point x="183" y="-3"/>
      <point x="234" y="31"/>
      <point x="234" y="118" type="curve" smooth="yes"/>
      <point x="234" y="192" type="line" smooth="yes"/>
      <point x="234" y="243"/>
      <point x="238" y="265"/>
      <point x="261" y="266" type="curve"/>
      <point x="271" y="334" type="line"/>
      <point x="221" y="370" type="line"/>
      <point x="224" y="404"/>
      <point x="232" y="432"/>
      <point x="267" y="432" type="curve" smooth="yes"/>
      <point x="309" y="432"/>
      <point x="321" y="400"/>
      <point x="321" y="337" type="curve" smooth="yes"/>
      <point x="321" y="-111" type="line"/>
      <point x="335" y="-106" type="line"/>
      <point x="283" y="-53" type="line"/>
      <point x="243" y="-105" type="line"/>
      <point x="219" y="-61"/>
      <point x="185" y="-39"/>
      <point x="145" y="-39" type="curve" smooth="yes"/>
      <point x="85" y="-39"/>
      <point x="40" y="-81"/>
      <point x="40" y="-177" type="curve" smooth="yes"/>
    </contour>
  </outline>
</glyph>
<glyph name="thoThan-thai" format="2">
  <advance width="474"/>
  <unicode hex="0E10"/>
  <anchor x="441" y="-195" name="bottom"/>
  <anchor x="412" y="536" name="top"/>
  <outline>
    <contour>
      <point x="75" y="0" type="line"/>
      <point x="206" y="0" type="line" smooth="yes"/>
      <point x="374" y="0"/>
      <point x="444" y="99"/>
      <point x="444" y="270" type="curve" smooth="yes"/>
      <point x="444" y="389"/>
      <point x="404" y="454"/>
      <point x="358" y="475" type="curve"/>
      <point x="345" y="541"/>
      <point x="284" y="562"/>
      <point x="207" y="562" type="curve" smooth="yes"/>
      <point x="127" y="562"/>
      <point x="76" y="541"/>
      <point x="38" y="519" type="curve"/>
      <point x="38" y="385" type="line"/>
      <point x="67" y="411"/>
      <point x="109" y="434"/>
      <point x="171" y="434" type="curve" smooth="yes"/>
      <point x="233" y="434"/>
      <point x="280" y="394"/>
      <point x="280" y="275" type="curve" smooth="yes"/>
      <point x="280" y="175"/>
      <point x="254" y="122"/>
      <point x="219" y="122" type="curve" smooth="yes"/>
      <point x="218" y="122" type="line"/>
      <point x="218" y="323" type="line"/>
      <point x="43" y="323" type="line"/>
      <point x="43" y="227" type="line"/>
      <point x="75" y="227" type="line"/>
    </contour>
    <contour>
      <point x="34" y="-214" type="line"/>
      <point x="145" y="-214" type="line"/>
      <point x="145" y="-210" type="line" smooth="yes"/>
      <point x="145" y="-189"/>
      <point x="147" y="-162"/>
      <point x="170" y="-162" type="curve" smooth="yes"/>
      <point x="192" y="-162"/>
      <point x="206" y="-188"/>
      <point x="215" y="-214" type="curve"/>
      <point x="242" y="-214" type="line"/>
      <point x="267" y="-164" type="line"/>
      <point x="308" y="-214" type="line"/>
      <point x="441" y="-214" type="line"/>
      <point x="441" y="-28" type="line"/>
      <point x="312" y="-28" type="line"/>
      <point x="312" y="-115" type="line"/>
      <point x="318" y="-110" type="line"/>
      <point x="265" y="-55" type="line"/>
      <point x="229" y="-109" type="line"/>
      <point x="201" y="-68"/>
      <point x="176" y="-43"/>
      <point x="133" y="-43" type="curve" smooth="yes"/>
      <point x="73" y="-43"/>
      <point x="34" y="-85"/>
      <point x="34" y="-182" type="curve" smooth="yes"/>
    </contour>
    <contour>
      <point x="353" y="432" type="line"/>
      <point x="443" y="461"/>
      <point x="462" y="522"/>
      <point x="462" y="584" type="curve"/>
      <point x="338" y="584" type="line"/>
      <point x="336" y="549"/>
      <point x="321" y="524"/>
      <point x="294" y="506" type="curve"/>
    </contour>
  </outline>
</glyph>
<glyph name="thoNangmontho-thai" format="2">
  <advance width="538"/>
  <unicode hex="0E11"/>
  <anchor x="486" y="0" name="bottom"/>
  <anchor x="460" y="536" name="top"/>
  <outline>
    <contour>
      <point x="58" y="0" type="line"/>
      <point x="220" y="0" type="line"/>
      <point x="220" y="213" type="line" smooth="yes"/>
      <point x="220" y="279"/>
      <point x="229" y="307"/>
      <point x="247" y="350" type="curve" smooth="yes"/>
      <point x="270" y="404"/>
      <point x="282" y="425"/>
      <point x="302" y="425" type="curve" smooth="yes"/>
      <point x="319" y="425"/>
      <point x="324" y="410"/>
      <point x="324" y="377" type="curve" smooth="yes"/>
      <point x="324" y="0" type="line"/>
      <point x="486" y="0" type="line"/>
      <point x="486" y="447" type="line" smooth="yes"/>
      <point x="486" y="524"/>
      <point x="447" y="558"/>
      <point x="387" y="558" type="curve" smooth="yes"/>
      <point x="322" y="558"/>
      <point x="286" y="519"/>
      <point x="265" y="472" type="curve"/>
      <point x="261" y="472" type="line"/>
      <point x="261" y="548" type="line"/>
      <point x="186" y="548" type="line"/>
      <point x="173" y="511" type="line"/>
      <point x="165" y="500"/>
      <point x="157" y="497"/>
      <point x="150" y="497" type="curve" smooth="yes"/>
      <point x="136" y="497"/>
      <point x="129" y="511"/>
      <point x="129" y="548" type="curve"/>
      <point x="29" y="548" type="line"/>
      <point x="29" y="509" type="line" smooth="yes"/>
      <point x="29" y="442"/>
      <point x="58" y="404"/>
      <point x="95" y="404" type="curve" smooth="yes"/>
      <point x="105" y="404"/>
      <point x="111" y="407"/>
      <point x="122" y="414" type="curve"/>
      <point x="124" y="413" type="line"/>
      <point x="122" y="398"/>
      <point x="124" y="407"/>
      <point x="98" y="362" type="curve" smooth="yes"/>
      <point x="65" y="304"/>
      <point x="58" y="269"/>
      <point x="58" y="209" type="curve" smooth="yes"/>
    </contour>
  </outline>
</glyph>
<glyph name="thoPhuthao-thai" format="2">
  <advance width="776"/>
  <unicode hex="0E12"/>
  <anchor x="708" y="0" name="bottom"/>
  <anchor x="725" y="536" name="top"/>
  <outline>
    <contour>
      <point x="222" y="-10" type="curve" smooth="yes"/>
      <point x="249" y="-10"/>
      <point x="265" y="-6"/>
      <point x="283" y="3" type="curve"/>
      <point x="268" y="117" type="line"/>
      <point x="263" y="114"/>
      <point x="255" y="112"/>
      <point x="250" y="112" type="curve" smooth="yes"/>
      <point x="209" y="112"/>
      <point x="197" y="170"/>
      <point x="197" y="283" type="curve" smooth="yes"/>
      <point x="197" y="393"/>
      <point x="206" y="429"/>
      <point x="221" y="429" type="curve" smooth="yes"/>
      <point x="228" y="429"/>
      <point x="236" y="420"/>
      <point x="239" y="383" type="curve"/>
      <point x="287" y="383" type="line"/>
      <point x="290" y="417"/>
      <point x="298" y="429"/>
      <point x="307" y="429" type="curve" smooth="yes"/>
      <point x="316" y="429"/>
      <point x="322" y="419"/>
      <point x="322" y="378" type="curve" smooth="yes"/>
      <point x="322" y="0" type="line"/>
      <point x="442" y="0" type="line"/>
      <point x="463" y="86" type="line"/>
      <point x="472" y="86" type="line"/>
      <point x="491" y="32"/>
      <point x="529" y="-10"/>
      <point x="600" y="-10" type="curve" smooth="yes"/>
      <point x="694" y="-10"/>
      <point x="725" y="54"/>
      <point x="725" y="178" type="curve" smooth="yes"/>
      <point x="725" y="548" type="line"/>
      <point x="563" y="548" type="line"/>
      <point x="563" y="216" type="line" smooth="yes"/>
      <point x="563" y="155"/>
      <point x="545" y="131"/>
      <point x="527" y="131" type="curve" smooth="yes"/>
      <point x="500" y="131"/>
      <point x="480" y="180"/>
      <point x="480" y="257" type="curve" smooth="yes"/>
      <point x="480" y="412" type="line" smooth="yes"/>
      <point x="480" y="506"/>
      <point x="446" y="558"/>
      <point x="371" y="558" type="curve" smooth="yes"/>
      <point x="333" y="558"/>
      <point x="288" y="544"/>
      <point x="269" y="493" type="curve"/>
      <point x="265" y="493" type="line"/>
      <point x="243" y="543"/>
      <point x="213" y="558"/>
      <point x="175" y="558" type="curve" smooth="yes"/>
      <point x="82" y="558"/>
      <point x="35" y="475"/>
      <point x="35" y="281" type="curve" smooth="yes"/>
      <point x="35" y="103"/>
      <point x="79" y="-10"/>
    </contour>
  </outline>
</glyph>
<glyph name="noNen-thai" format="2">
  <advance width="764"/>
  <unicode hex="0E13"/>
  <anchor x="708" y="0" name="bottom"/>
  <anchor x="708" y="536" name="top"/>
  <outline>
    <contour>
      <point x="173" y="-10" type="curve" smooth="yes"/>
      <point x="212" y="-10"/>
      <point x="244" y="-2"/>
      <point x="263" y="11" type="curve"/>
      <point x="251" y="105" type="line"/>
      <point x="244" y="101"/>
      <point x="235" y="99"/>
      <point x="226" y="99" type="curve" smooth="yes"/>
      <point x="204" y="99"/>
      <point x="196" y="111"/>
      <point x="196" y="140" type="curve" smooth="yes"/>
      <point x="196" y="196" type="line" smooth="yes"/>
      <point x="196" y="247"/>
      <point x="207" y="264"/>
      <point x="244" y="266" type="curve"/>
      <point x="254" y="334" type="line"/>
      <point x="204" y="374" type="line"/>
      <point x="208" y="414"/>
      <point x="225" y="435"/>
      <point x="252" y="435" type="curve" smooth="yes"/>
      <point x="285" y="435"/>
      <point x="302" y="412"/>
      <point x="302" y="347" type="curve" smooth="yes"/>
      <point x="302" y="171" type="line" smooth="yes"/>
      <point x="302" y="47"/>
      <point x="336" y="-10"/>
      <point x="429" y="-10" type="curve" smooth="yes"/>
      <point x="498" y="-10"/>
      <point x="536" y="31"/>
      <point x="554" y="86" type="curve"/>
      <point x="564" y="86" type="line"/>
      <point x="585" y="0" type="line"/>
      <point x="708" y="0" type="line"/>
      <point x="708" y="548" type="line"/>
      <point x="546" y="548" type="line"/>
      <point x="546" y="257" type="line" smooth="yes"/>
      <point x="546" y="180"/>
      <point x="527" y="131"/>
      <point x="498" y="131" type="curve" smooth="yes"/>
      <point x="479" y="131"/>
      <point x="460" y="155"/>
      <point x="460" y="216" type="curve" smooth="yes"/>
      <point x="460" y="358" type="line" smooth="yes"/>
      <point x="460" y="491"/>
      <point x="397" y="562"/>
      <point x="255" y="562" type="curve" smooth="yes"/>
      <point x="110" y="562"/>
      <point x="37" y="481"/>
      <point x="37" y="377" type="curve" smooth="yes"/>
      <point x="37" y="353" type="line"/>
      <point x="119" y="314" type="line"/>
      <point x="118" y="310" type="line"/>
      <point x="65" y="290"/>
      <point x="39" y="258"/>
      <point x="39" y="181" type="curve" smooth="yes"/>
      <point x="39" y="123" type="line" smooth="yes"/>
      <point x="39" y="35"/>
      <point x="83" y="-10"/>
    </contour>
  </outline>
</glyph>
<glyph name="doDek-thai" format="2">
  <advance width="522"/>
  <unicode hex="0E14"/>
  <anchor x="469" y="0" name="bottom"/>
  <anchor x="444" y="536" name="top"/>
  <outline>
    <contour>
      <point x="213" y="-10" type="curve" smooth="yes"/>
      <point x="235" y="-10"/>
      <point x="264" y="-7"/>
      <point x="281" y="3" type="curve"/>
      <point x="266" y="124" type="line"/>
      <point x="259" y="121"/>
      <point x="250" y="119"/>
      <point x="243" y="119" type="curve" smooth="yes"/>
      <point x="212" y="119"/>
      <point x="197" y="178"/>
      <point x="197" y="269" type="curve" smooth="yes"/>
      <point x="197" y="398"/>
      <point x="219" y="432"/>
      <point x="258" y="432" type="curve" smooth="yes"/>
      <point x="291" y="432"/>
      <point x="308" y="400"/>
      <point x="308" y="343" type="curve" smooth="yes"/>
      <point x="308" y="0" type="line"/>
      <point x="470" y="0" type="line"/>
      <point x="470" y="355" type="line" smooth="yes"/>
      <point x="470" y="480"/>
      <point x="416" y="562"/>
      <point x="260" y="562" type="curve" smooth="yes"/>
      <point x="128" y="562"/>
      <point x="31" y="501"/>
      <point x="31" y="266" type="curve" smooth="yes"/>
      <point x="31" y="102"/>
      <point x="82" y="-10"/>
    </contour>
  </outline>
</glyph>
<glyph name="toTao-thai" format="2">
  <advance width="537"/>
  <unicode hex="0E15"/>
  <note>
uni0E15
</note>
  <anchor x="486" y="0" name="bottom"/>
  <anchor x="460" y="536" name="top"/>
  <outline>
    <contour>
      <point x="226" y="-10" type="curve" smooth="yes"/>
      <point x="252" y="-10"/>
      <point x="268" y="-6"/>
      <point x="286" y="3" type="curve"/>
      <point x="271" y="117" type="line"/>
      <point x="265" y="114"/>
      <point x="259" y="112"/>
      <point x="253" y="112" type="curve" smooth="yes"/>
      <point x="213" y="112"/>
      <point x="201" y="171"/>
      <point x="201" y="279" type="curve" smooth="yes"/>
      <point x="201" y="389"/>
      <point x="209" y="429"/>
      <point x="222" y="429" type="curve" smooth="yes"/>
      <point x="228" y="429"/>
      <point x="234" y="424"/>
      <point x="238" y="388" type="curve"/>
      <point x="294" y="388" type="line"/>
      <point x="298" y="423"/>
      <point x="304" y="429"/>
      <point x="311" y="429" type="curve" smooth="yes"/>
      <point x="318" y="429"/>
      <point x="323" y="418"/>
      <point x="323" y="378" type="curve" smooth="yes"/>
      <point x="323" y="0" type="line"/>
      <point x="485" y="0" type="line"/>
      <point x="485" y="412" type="line" smooth="yes"/>
      <point x="485" y="506"/>
      <point x="451" y="558"/>
      <point x="373" y="558" type="curve" smooth="yes"/>
      <point x="335" y="558"/>
      <point x="290" y="544"/>
      <point x="271" y="493" type="curve"/>
      <point x="268" y="493" type="line"/>
      <point x="245" y="543"/>
      <point x="216" y="558"/>
      <point x="178" y="558" type="curve" smooth="yes"/>
      <point x="81" y="558"/>
      <point x="35" y="474"/>
      <point x="35" y="280" type="curve" smooth="yes"/>
      <point x="35" y="105"/>
      <point x="79" y="-10"/>
    </contour>
  </outline>
</glyph>
<glyph name="thoThung-thai" format="2">
  <advance width="518"/>
  <unicode hex="0E16"/>
  <anchor x="466" y="0" name="bottom"/>
  <anchor x="449" y="536" name="top"/>
  <outline>
    <contour>
      <point x="173" y="-10" type="curve" smooth="yes"/>
      <point x="212" y="-10"/>
      <point x="244" y="-2"/>
      <point x="263" y="11" type="curve"/>
      <point x="251" y="105" type="line"/>
      <point x="244" y="101"/>
      <point x="235" y="99"/>
      <point x="226" y="99" type="curve" smooth="yes"/>
      <point x="204" y="99"/>
      <point x="196" y="111"/>
      <point x="196" y="140" type="curve" smooth="yes"/>
      <point x="196" y="198" type="line" smooth="yes"/>
      <point x="196" y="249"/>
      <point x="207" y="264"/>
      <point x="244" y="266" type="curve"/>
      <point x="254" y="333" type="line"/>
      <point x="204" y="370" type="line"/>
      <point x="207" y="404"/>
      <point x="215" y="432"/>
      <point x="250" y="432" type="curve" smooth="yes"/>
      <point x="292" y="432"/>
      <point x="304" y="400"/>
      <point x="304" y="337" type="curve" smooth="yes"/>
      <point x="304" y="0" type="line"/>
      <point x="466" y="0" type="line"/>
      <point x="466" y="346" type="line" smooth="yes"/>
      <point x="466" y="489"/>
      <point x="396" y="562"/>
      <point x="255" y="562" type="curve" smooth="yes"/>
      <point x="111" y="562"/>
      <point x="37" y="479"/>
      <point x="37" y="377" type="curve" smooth="yes"/>
      <point x="37" y="353" type="line"/>
      <point x="119" y="314" type="line"/>
      <point x="118" y="310" type="line"/>
      <point x="65" y="290"/>
      <point x="39" y="254"/>
      <point x="39" y="177" type="curve" smooth="yes"/>
      <point x="39" y="123" type="line" smooth="yes"/>
      <point x="39" y="35"/>
      <point x="83" y="-10"/>
    </contour>
  </outline>
</glyph>
<glyph name="thoThahan-thai" format="2">
  <advance width="541"/>
  <unicode hex="0E17"/>
  <anchor x="489" y="0" name="bottom"/>
  <anchor x="463" y="536" name="top"/>
  <outline>
    <contour>
      <point x="57" y="0" type="line"/>
      <point x="219" y="0" type="line"/>
      <point x="219" y="251" type="line" smooth="yes"/>
      <point x="219" y="364"/>
      <point x="241" y="417"/>
      <point x="279" y="417" type="curve" smooth="yes"/>
      <point x="310" y="417"/>
      <point x="327" y="389"/>
      <point x="327" y="316" type="curve" smooth="yes"/>
      <point x="327" y="0" type="line"/>
      <point x="489" y="0" type="line"/>
      <point x="489" y="350" type="line" smooth="yes"/>
      <point x="489" y="490"/>
      <point x="443" y="558"/>
      <point x="337" y="558" type="curve" smooth="yes"/>
      <point x="264" y="558"/>
      <point x="223" y="516"/>
      <point x="206" y="462" type="curve"/>
      <point x="197" y="462" type="line"/>
      <point x="177" y="548" type="line"/>
      <point x="57" y="548" type="line"/>
    </contour>
  </outline>
</glyph>
<glyph name="thoThong-thai" format="2">
  <advance width="457"/>
  <unicode hex="0E18"/>
  <anchor x="383" y="0" name="bottom"/>
  <anchor x="417" y="536" name="top"/>
  <outline>
    <contour>
      <point x="238" y="-14" type="curve" smooth="yes"/>
      <point x="392" y="-14"/>
      <point x="432" y="66"/>
      <point x="432" y="170" type="curve" smooth="yes"/>
      <point x="432" y="279"/>
      <point x="400" y="323"/>
      <point x="307" y="358" type="curve" smooth="yes"/>
      <point x="241" y="383"/>
      <point x="193" y="385"/>
      <point x="193" y="415" type="curve" smooth="yes"/>
      <point x="193" y="438"/>
      <point x="213" y="444"/>
      <point x="231" y="444" type="curve" smooth="yes"/>
      <point x="289" y="444"/>
      <point x="361" y="423"/>
      <point x="393" y="408" type="curve"/>
      <point x="393" y="530" type="line"/>
      <point x="364" y="545"/>
      <point x="307" y="562"/>
      <point x="235" y="562" type="curve" smooth="yes"/>
      <point x="124" y="562"/>
      <point x="31" y="521"/>
      <point x="31" y="406" type="curve" smooth="yes"/>
      <point x="31" y="313"/>
      <point x="86" y="285"/>
      <point x="163" y="258" type="curve" smooth="yes"/>
      <point x="234" y="233"/>
      <point x="280" y="228"/>
      <point x="280" y="167" type="curve" smooth="yes"/>
      <point x="280" y="115"/>
      <point x="261" y="98"/>
      <point x="226" y="98" type="curve" smooth="yes"/>
      <point x="211" y="98"/>
      <point x="196" y="103"/>
      <point x="178" y="110" type="curve"/>
      <point x="178" y="239" type="line"/>
      <point x="45" y="239" type="line"/>
      <point x="45" y="25" type="line"/>
      <point x="102" y="3"/>
      <point x="174" y="-14"/>
    </contour>
  </outline>
</glyph>
<glyph name="noNu-thai" format="2">
  <advance width="540"/>
  <unicode hex="0E19"/>
  <note>
uni0E19
</note>
  <anchor x="484" y="0" name="bottom"/>
  <anchor x="484" y="536" name="top"/>
  <outline>
    <contour>
      <point x="199" y="-10" type="curve" smooth="yes"/>
      <point x="281" y="-10"/>
      <point x="317" y="32"/>
      <point x="334" y="85" type="curve"/>
      <point x="344" y="85" type="line"/>
      <point x="365" y="0" type="line"/>
      <point x="484" y="0" type="line"/>
      <point x="484" y="548" type="line"/>
      <point x="322" y="548" type="line"/>
      <point x="322" y="297" type="line" smooth="yes"/>
      <point x="322" y="180"/>
      <point x="300" y="131"/>
      <point x="260" y="131" type="curve" smooth="yes"/>
      <point x="231" y="131"/>
      <point x="214" y="160"/>
      <point x="214" y="232" type="curve" smooth="yes"/>
      <point x="214" y="548" type="line"/>
      <point x="52" y="548" type="line"/>
      <point x="52" y="202" type="line" smooth="yes"/>
      <point x="52" y="64"/>
      <point x="98" y="-10"/>
    </contour>
  </outline>
</glyph>
<glyph name="poPla-thai" format="2">
  <advance width="530"/>
  <unicode hex="0E1B"/>
  <note>
uni0E1B
</note>
  <anchor x="456" y="0" name="bottom"/>
  <anchor x="288" y="536" name="top"/>
  <outline>
    <contour>
      <point x="266" y="-14" type="curve" smooth="yes"/>
      <point x="415" y="-14"/>
      <point x="480" y="71"/>
      <point x="480" y="228" type="curve" smooth="yes"/>
      <point x="480" y="745" type="line"/>
      <point x="318" y="745" type="line"/>
      <point x="318" y="218" type="line" smooth="yes"/>
      <point x="318" y="151"/>
      <point x="303" y="116"/>
      <point x="266" y="116" type="curve" smooth="yes"/>
      <point x="229" y="116"/>
      <point x="214" y="151"/>
      <point x="214" y="218" type="curve" smooth="yes"/>
      <point x="214" y="548" type="line"/>
      <point x="52" y="548" type="line"/>
      <point x="52" y="228" type="line" smooth="yes"/>
      <point x="52" y="71"/>
      <point x="118" y="-14"/>
    </contour>
  </outline>
</glyph>
<glyph name="phoPhung-thai" format="2">
  <advance width="566"/>
  <unicode hex="0E1C"/>
  <anchor x="510" y="0" name="bottom"/>
  <anchor x="510" y="536" name="top"/>
  <outline>
    <contour>
      <point x="53" y="0" type="line"/>
      <point x="212" y="0" type="line"/>
      <point x="280" y="199" type="line"/>
      <point x="283" y="199" type="line"/>
      <point x="351" y="0" type="line"/>
      <point x="510" y="0" type="line"/>
      <point x="510" y="548" type="line"/>
      <point x="362" y="548" type="line"/>
      <point x="362" y="330" type="line" smooth="yes"/>
      <point x="362" y="298"/>
      <point x="364" y="254"/>
      <point x="371" y="183" type="curve"/>
      <point x="367" y="183" type="line"/>
      <point x="348" y="235"/>
      <point x="341" y="262"/>
      <point x="323" y="309" type="curve" smooth="yes"/>
      <point x="303" y="362" type="line"/>
      <point x="259" y="362" type="line"/>
      <point x="240" y="309" type="line" smooth="yes"/>
      <point x="230" y="280"/>
      <point x="218" y="248"/>
      <point x="196" y="183" type="curve"/>
      <point x="192" y="183" type="line"/>
      <point x="199" y="254"/>
      <point x="201" y="298"/>
      <point x="201" y="330" type="curve" smooth="yes"/>
      <point x="201" y="401" type="line" smooth="yes"/>
      <point x="201" y="425"/>
      <point x="206" y="439"/>
      <point x="221" y="439" type="curve" smooth="yes"/>
      <point x="225" y="439"/>
      <point x="233" y="438"/>
      <point x="239" y="435" type="curve"/>
      <point x="261" y="539" type="line"/>
      <point x="245" y="548"/>
      <point x="220" y="558"/>
      <point x="174" y="558" type="curve" smooth="yes"/>
      <point x="97" y="558"/>
      <point x="53" y="526"/>
      <point x="53" y="421" type="curve" smooth="yes"/>
    </contour>
  </outline>
</glyph>
<glyph name="phoPhan-thai" format="2">
  <advance width="603"/>
  <unicode hex="0E1E"/>
  <note>
uni0E1E
</note>
  <anchor x="512" y="0" name="bottom"/>
  <anchor x="554" y="536" name="top"/>
  <outline>
    <contour>
      <point x="91" y="0" type="line"/>
      <point x="244" y="0" type="line"/>
      <point x="279" y="178" type="line" smooth="yes"/>
      <point x="291" y="239"/>
      <point x="296" y="276"/>
      <point x="300" y="320" type="curve"/>
      <point x="303" y="320" type="line"/>
      <point x="306" y="276"/>
      <point x="309" y="235"/>
      <point x="320" y="178" type="curve" smooth="yes"/>
      <point x="353" y="0" type="line"/>
      <point x="512" y="0" type="line"/>
      <point x="584" y="548" type="line"/>
      <point x="430" y="548" type="line"/>
      <point x="417" y="394" type="line" smooth="yes"/>
      <point x="414" y="363"/>
      <point x="410" y="307"/>
      <point x="407" y="236" type="curve"/>
      <point x="405" y="236" type="line"/>
      <point x="392" y="307"/>
      <point x="383" y="362"/>
      <point x="376" y="397" type="curve" smooth="yes"/>
      <point x="344" y="548" type="line"/>
      <point x="259" y="548" type="line"/>
      <point x="226" y="397" type="line" smooth="yes"/>
      <point x="218" y="362"/>
      <point x="211" y="307"/>
      <point x="198" y="236" type="curve"/>
      <point x="195" y="236" type="line"/>
      <point x="193" y="307"/>
      <point x="189" y="363"/>
      <point x="186" y="394" type="curve" smooth="yes"/>
      <point x="173" y="548" type="line"/>
      <point x="19" y="548" type="line"/>
    </contour>
  </outline>
</glyph>
<glyph name="foFan-thai" format="2">
  <advance width="599"/>
  <unicode hex="0E1F"/>
  <anchor x="512" y="0" name="bottom"/>
  <anchor x="381" y="536" name="top"/>
  <outline>
    <contour>
      <point x="92" y="0" type="line"/>
      <point x="244" y="0" type="line"/>
      <point x="276" y="178" type="line" smooth="yes"/>
      <point x="286" y="235"/>
      <point x="293" y="276"/>
      <point x="298" y="320" type="curve"/>
      <point x="301" y="320" type="line"/>
      <point x="305" y="276"/>
      <point x="311" y="234"/>
      <point x="321" y="178" type="curve" smooth="yes"/>
      <point x="354" y="0" type="line"/>
      <point x="512" y="0" type="line"/>
      <point x="599" y="745" type="line"/>
      <point x="444" y="745" type="line"/>
      <point x="419" y="394" type="line" smooth="yes"/>
      <point x="415" y="333"/>
      <point x="411" y="306"/>
      <point x="408" y="236" type="curve"/>
      <point x="406" y="236" type="line"/>
      <point x="395" y="299"/>
      <point x="384" y="354"/>
      <point x="375" y="397" type="curve" smooth="yes"/>
      <point x="345" y="548" type="line"/>
      <point x="258" y="548" type="line"/>
      <point x="229" y="397" type="line" smooth="yes"/>
      <point x="215" y="324"/>
      <point x="210" y="299"/>
      <point x="198" y="236" type="curve"/>
      <point x="196" y="236" type="line"/>
      <point x="193" y="304"/>
      <point x="189" y="369"/>
      <point x="187" y="394" type="curve" smooth="yes"/>
      <point x="173" y="548" type="line"/>
      <point x="19" y="548" type="line"/>
    </contour>
  </outline>
</glyph>
<glyph name="phoSamphao-thai" format="2">
  <advance width="535"/>
  <unicode hex="0E20"/>
  <anchor x="483" y="0" name="bottom"/>
  <anchor x="466" y="536" name="top"/>
  <outline>
    <contour>
      <point x="110" y="-10" type="curve" smooth="yes"/>
      <point x="183" y="-10"/>
      <point x="234" y="24"/>
      <point x="234" y="111" type="curve" smooth="yes"/>
      <point x="234" y="192" type="line" smooth="yes"/>
      <point x="234" y="243"/>
      <point x="238" y="265"/>
      <point x="261" y="266" type="curve"/>
      <point x="271" y="334" type="line"/>
      <point x="221" y="370" type="line"/>
      <point x="224" y="404"/>
      <point x="232" y="432"/>
      <point x="267" y="432" type="curve" smooth="yes"/>
      <point x="309" y="432"/>
      <point x="321" y="400"/>
      <point x="321" y="337" type="curve" smooth="yes"/>
      <point x="321" y="0" type="line"/>
      <point x="483" y="0" type="line"/>
      <point x="483" y="346" type="line" smooth="yes"/>
      <point x="483" y="489"/>
      <point x="414" y="562"/>
      <point x="270" y="562" type="curve" smooth="yes"/>
      <point x="123" y="562"/>
      <point x="54" y="479"/>
      <point x="54" y="377" type="curve" smooth="yes"/>
      <point x="54" y="353" type="line"/>
      <point x="136" y="314" type="line"/>
      <point x="135" y="310" type="line"/>
      <point x="94" y="296"/>
      <point x="77" y="261"/>
      <point x="77" y="199" type="curve" smooth="yes"/>
      <point x="77" y="130" type="line" smooth="yes"/>
      <point x="77" y="106"/>
      <point x="69" y="95"/>
      <point x="51" y="95" type="curve" smooth="yes"/>
      <point x="46" y="95"/>
      <point x="41" y="96"/>
      <point x="35" y="99" type="curve"/>
      <point x="21" y="12" type="line"/>
      <point x="40" y="-1"/>
      <point x="71" y="-10"/>
    </contour>
  </outline>
</glyph>
<glyph name="moMa-thai" format="2">
  <advance width="540"/>
  <unicode hex="0E21"/>
  <note>
uni0E21
</note>
  <anchor x="480" y="0" name="bottom"/>
  <anchor x="496" y="536" name="top"/>
  <outline>
    <contour>
      <point x="346" y="-10" type="curve" smooth="yes"/>
      <point x="443" y="-10"/>
      <point x="488" y="64"/>
      <point x="488" y="194" type="curve" smooth="yes"/>
      <point x="488" y="548" type="line"/>
      <point x="326" y="548" type="line"/>
      <point x="326" y="232" type="line" smooth="yes"/>
      <point x="326" y="160"/>
      <point x="309" y="131"/>
      <point x="280" y="131" type="curve" smooth="yes"/>
      <point x="240" y="131"/>
      <point x="218" y="180"/>
      <point x="218" y="297" type="curve" smooth="yes"/>
      <point x="218" y="548" type="line"/>
      <point x="56" y="548" type="line"/>
      <point x="56" y="0" type="line"/>
      <point x="175" y="0" type="line"/>
      <point x="196" y="86" type="line"/>
      <point x="205" y="86" type="line"/>
      <point x="224" y="31"/>
      <point x="264" y="-10"/>
    </contour>
  </outline>
</glyph>
<glyph name="yoYak-thai" format="2">
  <advance width="518"/>
  <unicode hex="0E22"/>
  <note>
uni0E22
</note>
  <anchor x="441" y="0" name="bottom"/>
  <anchor x="466" y="536" name="top"/>
  <outline>
    <contour>
      <point x="246" y="-14" type="curve" smooth="yes"/>
      <point x="398" y="-14"/>
      <point x="466" y="52"/>
      <point x="466" y="188" type="curve" smooth="yes"/>
      <point x="466" y="548" type="line"/>
      <point x="304" y="548" type="line"/>
      <point x="304" y="183" type="line" smooth="yes"/>
      <point x="304" y="142"/>
      <point x="291" y="108"/>
      <point x="250" y="108" type="curve" smooth="yes"/>
      <point x="208" y="108"/>
      <point x="197" y="145"/>
      <point x="197" y="179" type="curve" smooth="yes"/>
      <point x="197" y="219"/>
      <point x="214" y="237"/>
      <point x="244" y="237" type="curve" smooth="yes"/>
      <point x="262" y="237" type="line"/>
      <point x="262" y="335" type="line"/>
      <point x="244" y="335" type="line" smooth="yes"/>
      <point x="220" y="335"/>
      <point x="195" y="346"/>
      <point x="195" y="391" type="curve" smooth="yes"/>
      <point x="195" y="420"/>
      <point x="206" y="439"/>
      <point x="229" y="439" type="curve" smooth="yes"/>
      <point x="239" y="439"/>
      <point x="250" y="435"/>
      <point x="255" y="432" type="curve"/>
      <point x="279" y="540" type="line"/>
      <point x="260" y="550"/>
      <point x="224" y="557"/>
      <point x="185" y="557" type="curve" smooth="yes"/>
      <point x="77" y="557"/>
      <point x="35" y="492"/>
      <point x="35" y="417" type="curve" smooth="yes"/>
      <point x="35" y="346"/>
      <point x="67" y="313"/>
      <point x="107" y="297" type="curve"/>
      <point x="107" y="291" type="line"/>
      <point x="72" y="279"/>
      <point x="33" y="245"/>
      <point x="33" y="159" type="curve" smooth="yes"/>
      <point x="33" y="56"/>
      <point x="92" y="-14"/>
    </contour>
  </outline>
</glyph>
<glyph name="roRua-thai" format="2">
  <advance width="435"/>
  <unicode hex="0E23"/>
  <note>
uni0E23
</note>
  <anchor x="364" y="0" name="bottom"/>
  <anchor x="359" y="536" name="top"/>
  <outline>
    <contour>
      <point x="227" y="-14" type="curve" smooth="yes"/>
      <point x="358" y="-14"/>
      <point x="409" y="63"/>
      <point x="409" y="155" type="curve" smooth="yes"/>
      <point x="409" y="233"/>
      <point x="382" y="285"/>
      <point x="294" y="328" type="curve" smooth="yes"/>
      <point x="252" y="349"/>
      <point x="202" y="365"/>
      <point x="202" y="403" type="curve" smooth="yes"/>
      <point x="202" y="422"/>
      <point x="215" y="438"/>
      <point x="250" y="438" type="curve" smooth="yes"/>
      <point x="283" y="438"/>
      <point x="343" y="424"/>
      <point x="374" y="406" type="curve"/>
      <point x="374" y="530" type="line"/>
      <point x="346" y="547"/>
      <point x="292" y="562"/>
      <point x="232" y="562" type="curve" smooth="yes"/>
      <point x="127" y="562"/>
      <point x="38" y="518"/>
      <point x="38" y="396" type="curve" smooth="yes"/>
      <point x="38" y="294"/>
      <point x="100" y="257"/>
      <point x="157" y="224" type="curve" smooth="yes"/>
      <point x="230" y="183"/>
      <point x="248" y="177"/>
      <point x="248" y="151" type="curve" smooth="yes"/>
      <point x="248" y="127"/>
      <point x="233" y="113"/>
      <point x="202" y="113" type="curve" smooth="yes"/>
      <point x="154" y="113"/>
      <point x="97" y="146"/>
      <point x="69" y="167" type="curve"/>
      <point x="24" y="39" type="line"/>
      <point x="82" y="4"/>
      <point x="161" y="-14"/>
    </contour>
  </outline>
</glyph>
<glyph name="loLing-thai" format="2">
  <advance width="500"/>
  <unicode hex="0E25"/>
  <anchor x="448" y="0" name="bottom"/>
  <anchor x="438" y="536" name="top"/>
  <outline>
    <contour>
      <point x="289" y="0" type="line"/>
      <point x="448" y="0" type="line"/>
      <point x="448" y="346" type="line" smooth="yes"/>
      <point x="448" y="512"/>
      <point x="346" y="562"/>
      <point x="242" y="562" type="curve" smooth="yes"/>
      <point x="161" y="562"/>
      <point x="99" y="537"/>
      <point x="69" y="518" type="curve"/>
      <point x="69" y="386" type="line"/>
      <point x="102" y="413"/>
      <point x="165" y="438"/>
      <point x="221" y="438" type="curve" smooth="yes"/>
      <point x="265" y="438"/>
      <point x="289" y="414"/>
      <point x="289" y="354" type="curve" smooth="yes"/>
    </contour>
    <contour>
      <point x="167" y="-10" type="curve" smooth="yes"/>
      <point x="199" y="-10"/>
      <point x="233" y="-4"/>
      <point x="252" y="5" type="curve"/>
      <point x="242" y="102" type="line"/>
      <point x="237" y="100"/>
      <point x="228" y="97"/>
      <point x="219" y="97" type="curve" smooth="yes"/>
      <point x="197" y="97"/>
      <point x="185" y="119"/>
      <point x="185" y="154" type="curve" smooth="yes"/>
      <point x="185" y="190"/>
      <point x="198" y="214"/>
      <point x="226" y="218" type="curve" smooth="yes"/>
      <point x="314" y="229" type="line"/>
      <point x="314" y="344" type="line"/>
      <point x="202" y="332" type="line" smooth="yes"/>
      <point x="82" y="319"/>
      <point x="26" y="252"/>
      <point x="26" y="146" type="curve" smooth="yes"/>
      <point x="26" y="47"/>
      <point x="76" y="-10"/>
    </contour>
  </outline>
</glyph>
<glyph name="woWaen-thai" format="2">
  <advance width="427"/>
  <unicode hex="0E27"/>
  <anchor x="342" y="0" name="bottom"/>
  <anchor x="396" y="536" name="top"/>
  <outline>
    <contour>
      <point x="189" y="-14" type="curve" smooth="yes"/>
      <point x="317" y="-14"/>
      <point x="396" y="84"/>
      <point x="396" y="277" type="curve" smooth="yes"/>
      <point x="396" y="456"/>
      <point x="330" y="562"/>
      <point x="183" y="562" type="curve" smooth="yes"/>
      <point x="126" y="562"/>
      <point x="81" y="550"/>
      <point x="46" y="531" type="curve"/>
      <point x="46" y="399" type="line"/>
      <point x="70" y="418"/>
      <point x="113" y="432"/>
      <point x="149" y="432" type="curve" smooth="yes"/>
      <point x="204" y="432"/>
      <point x="230" y="378"/>
      <point x="230" y="277" type="curve" smooth="yes"/>
      <point x="230" y="169"/>
      <point x="199" y="116"/>
      <point x="159" y="116" type="curve" smooth="yes"/>
      <point x="133" y="116"/>
      <point x="91" y="132"/>
      <point x="68" y="149" type="curve"/>
      <point x="28" y="32" type="line"/>
      <point x="66" y="4"/>
      <point x="125" y="-14"/>
    </contour>
  </outline>
</glyph>
<glyph name="soSala-thai" format="2">
  <advance width="548"/>
  <unicode hex="0E28"/>
  <anchor x="494" y="0" name="bottom"/>
  <anchor x="456" y="536" name="top"/>
  <outline>
    <contour>
      <point x="52" y="0" type="line"/>
      <point x="212" y="0" type="line"/>
      <point x="212" y="61" type="line" smooth="yes"/>
      <point x="212" y="128"/>
      <point x="227" y="184"/>
      <point x="289" y="184" type="curve" smooth="yes"/>
      <point x="302" y="184" type="line"/>
      <point x="302" y="303" type="line"/>
      <point x="289" y="303" type="line" smooth="yes"/>
      <point x="253" y="303"/>
      <point x="233" y="291"/>
      <point x="216" y="239" type="curve"/>
      <point x="212" y="240" type="line"/>
      <point x="212" y="322" type="line" smooth="yes"/>
      <point x="212" y="390"/>
      <point x="227" y="432"/>
      <point x="273" y="432" type="curve" smooth="yes"/>
      <point x="319" y="432"/>
      <point x="333" y="390"/>
      <point x="333" y="322" type="curve" smooth="yes"/>
      <point x="333" y="0" type="line"/>
      <point x="494" y="0" type="line"/>
      <point x="494" y="319" type="line" smooth="yes"/>
      <point x="494" y="402"/>
      <point x="475" y="466"/>
      <point x="414" y="490" type="curve"/>
      <point x="390" y="543"/>
      <point x="336" y="562"/>
      <point x="276" y="562" type="curve" smooth="yes"/>
      <point x="120" y="562"/>
      <point x="52" y="477"/>
      <point x="52" y="320" type="curve" smooth="yes"/>
    </contour>
    <contour>
      <point x="422" y="432" type="line"/>
      <point x="512" y="461"/>
      <point x="531" y="522"/>
      <point x="531" y="584" type="curve"/>
      <point x="407" y="584" type="line"/>
      <point x="405" y="549"/>
      <point x="390" y="524"/>
      <point x="363" y="506" type="curve"/>
    </contour>
  </outline>
</glyph>
<glyph name="soRusi-thai" format="2">
  <advance width="574"/>
  <unicode hex="0E29"/>
  <anchor x="483" y="0" name="bottom"/>
  <anchor x="506" y="536" name="top"/>
  <outline>
    <contour>
      <point x="279" y="-14" type="curve" smooth="yes"/>
      <point x="441" y="-14"/>
      <point x="507" y="72"/>
      <point x="507" y="229" type="curve" smooth="yes"/>
      <point x="507" y="548" type="line"/>
      <point x="347" y="548" type="line"/>
      <point x="347" y="220" type="line" smooth="yes"/>
      <point x="347" y="144"/>
      <point x="330" y="114"/>
      <point x="282" y="114" type="curve" smooth="yes"/>
      <point x="229" y="114"/>
      <point x="212" y="152"/>
      <point x="212" y="220" type="curve" smooth="yes"/>
      <point x="212" y="548" type="line"/>
      <point x="52" y="548" type="line"/>
      <point x="52" y="229" type="line" smooth="yes"/>
      <point x="52" y="72"/>
      <point x="118" y="-14"/>
    </contour>
    <contour>
      <point x="331" y="216" type="curve" smooth="yes"/>
      <point x="545" y="216" type="line"/>
      <point x="545" y="313" type="line"/>
      <point x="359" y="313" type="line" smooth="yes"/>
      <point x="334" y="313"/>
      <point x="327" y="329"/>
      <point x="327" y="347" type="curve" smooth="yes"/>
      <point x="327" y="356"/>
      <point x="329" y="370"/>
      <point x="332" y="378" type="curve"/>
      <point x="242" y="398" type="line"/>
      <point x="229" y="381"/>
      <point x="223" y="350"/>
      <point x="223" y="325" type="curve" smooth="yes"/>
      <point x="223" y="273"/>
      <point x="248" y="216"/>
    </contour>
  </outline>
</glyph>
<glyph name="hoHip-thai" format="2">
  <advance width="520"/>
  <unicode hex="0E2B"/>
  <note>
uni0E2B
</note>
  <anchor x="479" y="0" name="bottom"/>
  <anchor x="448" y="536" name="top"/>
  <outline>
    <contour>
      <point x="56" y="0" type="line"/>
      <point x="214" y="0" type="line"/>
      <point x="214" y="159" type="line"/>
      <point x="486" y="542" type="line"/>
      <point x="486" y="548" type="line"/>
      <point x="313" y="548" type="line"/>
      <point x="218" y="369" type="line"/>
      <point x="214" y="369" type="line"/>
      <point x="214" y="548" type="line"/>
      <point x="56" y="548" type="line"/>
    </contour>
    <contour>
      <point x="317" y="0" type="line"/>
      <point x="479" y="0" type="line"/>
      <point x="479" y="206" type="line" smooth="yes"/>
      <point x="479" y="306"/>
      <point x="434" y="386"/>
      <point x="345" y="386" type="curve"/>
      <point x="249" y="274" type="line"/>
      <point x="287" y="274"/>
      <point x="317" y="248"/>
      <point x="317" y="179" type="curve" smooth="yes"/>
    </contour>
  </outline>
</glyph>
<glyph name="loChula-thai" format="2">
  <advance width="594"/>
  <unicode hex="0E2C"/>
  <anchor x="518" y="0" name="bottom"/>
  <outline>
    <contour>
      <point x="79" y="0" type="line"/>
      <point x="241" y="0" type="line"/>
      <point x="269" y="126" type="line" smooth="yes"/>
      <point x="281" y="189"/>
      <point x="287" y="210"/>
      <point x="297" y="280" type="curve"/>
      <point x="300" y="280" type="line"/>
      <point x="310" y="211"/>
      <point x="314" y="172"/>
      <point x="324" y="127" type="curve" smooth="yes"/>
      <point x="351" y="0" type="line"/>
      <point x="522" y="0" type="line"/>
      <point x="569" y="423" type="line" smooth="yes"/>
      <point x="575" y="475"/>
      <point x="562" y="535"/>
      <point x="517" y="556" type="curve"/>
      <point x="517" y="560" type="line"/>
      <point x="576" y="574"/>
      <point x="602" y="634"/>
      <point x="602" y="709" type="curve" smooth="yes"/>
      <point x="602" y="714" type="line"/>
      <point x="450" y="714" type="line"/>
      <point x="450" y="709" type="line" smooth="yes"/>
      <point x="450" y="655"/>
      <point x="429" y="615"/>
      <point x="358" y="615" type="curve" smooth="yes"/>
      <point x="295" y="615" type="line"/>
      <point x="295" y="511" type="line"/>
      <point x="356" y="511" type="line" smooth="yes"/>
      <point x="401" y="511"/>
      <point x="416" y="483"/>
      <point x="412" y="408" type="curve" smooth="yes"/>
      <point x="408" y="340" type="line" smooth="yes"/>
      <point x="406" y="292"/>
      <point x="403" y="243"/>
      <point x="400" y="181" type="curve"/>
      <point x="398" y="181" type="line"/>
      <point x="385" y="239"/>
      <point x="376" y="281"/>
      <point x="365" y="327" type="curve" smooth="yes"/>
      <point x="338" y="434" type="line"/>
      <point x="259" y="434" type="line"/>
      <point x="232" y="327" type="line" smooth="yes"/>
      <point x="221" y="271"/>
      <point x="210" y="239"/>
      <point x="201" y="180" type="curve"/>
      <point x="199" y="180" type="line"/>
      <point x="197" y="250"/>
      <point x="194" y="309"/>
      <point x="192" y="341" type="curve" smooth="yes"/>
      <point x="177" y="548" type="line"/>
      <point x="19" y="548" type="line"/>
    </contour>
  </outline>
</glyph>
<glyph name="oAng-thai" format="2">
  <advance width="487"/>
  <unicode hex="0E2D"/>
  <note>
uni0E2D
</note>
  <anchor x="410" y="0" name="bottom"/>
  <anchor x="427" y="536" name="top"/>
  <outline>
    <contour>
      <point x="239" y="-14" type="curve" smooth="yes"/>
      <point x="391" y="-14"/>
      <point x="461" y="88"/>
      <point x="461" y="271" type="curve" smooth="yes"/>
      <point x="461" y="449"/>
      <point x="394" y="562"/>
      <point x="229" y="562" type="curve" smooth="yes"/>
      <point x="171" y="562"/>
      <point x="97" y="545"/>
      <point x="59" y="522" type="curve"/>
      <point x="59" y="388" type="line"/>
      <point x="85" y="410"/>
      <point x="149" y="432"/>
      <point x="193" y="432" type="curve" smooth="yes"/>
      <point x="273" y="432"/>
      <point x="294" y="374"/>
      <point x="294" y="262" type="curve" smooth="yes"/>
      <point x="294" y="144"/>
      <point x="276" y="105"/>
      <point x="238" y="105" type="curve" smooth="yes"/>
      <point x="203" y="105"/>
      <point x="189" y="140"/>
      <point x="189" y="211" type="curve" smooth="yes"/>
      <point x="189" y="224" type="line"/>
      <point x="248" y="224" type="line"/>
      <point x="248" y="323" type="line"/>
      <point x="36" y="323" type="line"/>
      <point x="33" y="295"/>
      <point x="31" y="248"/>
      <point x="31" y="223" type="curve" smooth="yes"/>
      <point x="31" y="68"/>
      <point x="96" y="-14"/>
    </contour>
  </outline>
</glyph>
<glyph name="hoNokhuk-thai" format="2">
  <advance width="501"/>
  <unicode hex="0E2E"/>
  <anchor x="421" y="0" name="bottom"/>
  <anchor x="421" y="536" name="top"/>
  <outline>
    <contour>
      <point x="237" y="-14" type="curve" smooth="yes"/>
      <point x="391" y="-14"/>
      <point x="461" y="92"/>
      <point x="461" y="263" type="curve" smooth="yes"/>
      <point x="461" y="372"/>
      <point x="431" y="446"/>
      <point x="375" y="482" type="curve"/>
      <point x="345" y="540"/>
      <point x="289" y="562"/>
      <point x="225" y="562" type="curve" smooth="yes"/>
      <point x="173" y="562"/>
      <point x="96" y="545"/>
      <point x="58" y="522" type="curve"/>
      <point x="58" y="388" type="line"/>
      <point x="86" y="411"/>
      <point x="146" y="432"/>
      <point x="196" y="432" type="curve" smooth="yes"/>
      <point x="264" y="432"/>
      <point x="294" y="380"/>
      <point x="294" y="258" type="curve" smooth="yes"/>
      <point x="294" y="144"/>
      <point x="275" y="105"/>
      <point x="238" y="105" type="curve" smooth="yes"/>
      <point x="203" y="105"/>
      <point x="189" y="140"/>
      <point x="189" y="211" type="curve" smooth="yes"/>
      <point x="189" y="224" type="line"/>
      <point x="248" y="224" type="line"/>
      <point x="248" y="323" type="line"/>
      <point x="36" y="323" type="line"/>
      <point x="33" y="295"/>
      <point x="31" y="248"/>
      <point x="31" y="223" type="curve" smooth="yes"/>
      <point x="31" y="68"/>
      <point x="97" y="-14"/>
    </contour>
    <contour>
      <point x="370" y="432" type="line"/>
      <point x="460" y="461"/>
      <point x="479" y="522"/>
      <point x="479" y="584" type="curve"/>
      <point x="355" y="584" type="line"/>
      <point x="353" y="549"/>
      <point x="338" y="524"/>
      <point x="311" y="506" type="curve"/>
    </contour>
  </outline>
</glyph>
<glyph name="paiyannoi-thai" format="2">
  <advance width="450"/>
  <unicode hex="0E2F"/>
  <outline>
    <contour>
      <point x="244" y="0" type="line"/>
      <point x="406" y="0" type="line"/>
      <point x="406" y="548" type="line"/>
      <point x="244" y="548" type="line"/>
      <point x="244" y="414" type="line" smooth="yes"/>
      <point x="244" y="357"/>
      <point x="229" y="330"/>
      <point x="201" y="330" type="curve" smooth="yes"/>
      <point x="172" y="330"/>
      <point x="158" y="355"/>
      <point x="158" y="394" type="curve" smooth="yes"/>
      <point x="158" y="433"/>
      <point x="171" y="450"/>
      <point x="188" y="450" type="curve" smooth="yes"/>
      <point x="192" y="450"/>
      <point x="197" y="449"/>
      <point x="204" y="446" type="curve"/>
      <point x="211" y="546" type="line"/>
      <point x="188" y="556"/>
      <point x="165" y="558"/>
      <point x="149" y="558" type="curve" smooth="yes"/>
      <point x="61" y="558"/>
      <point x="9" y="494"/>
      <point x="9" y="390" type="curve" smooth="yes"/>
      <point x="9" y="266"/>
      <point x="83" y="209"/>
      <point x="157" y="209" type="curve" smooth="yes"/>
      <point x="227" y="209"/>
      <point x="275" y="251"/>
      <point x="275" y="323" type="curve"/>
      <point x="244" y="319" type="line"/>
    </contour>
  </outline>
</glyph>
<glyph name="maiHanaKat-thai" format="2">
  <unicode hex="0E31"/>
  <anchor x="-56" y="536" name="_top"/>
  <anchor x="-59" y="741" name="top"/>
  <outline>
    <contour>
      <point x="-186" y="622" type="curve" smooth="yes"/>
      <point x="10" y="622" type="line"/>
      <point x="10" y="724" type="line"/>
      <point x="-135" y="724" type="line" smooth="yes"/>
      <point x="-157" y="724"/>
      <point x="-165" y="734"/>
      <point x="-165" y="753" type="curve" smooth="yes"/>
      <point x="-165" y="760"/>
      <point x="-165" y="771"/>
      <point x="-162" y="780" type="curve"/>
      <point x="-273" y="795" type="line"/>
      <point x="-285" y="770"/>
      <point x="-292" y="743"/>
      <point x="-292" y="719" type="curve" smooth="yes"/>
      <point x="-292" y="670"/>
      <point x="-269" y="622"/>
    </contour>
  </outline>
</glyph>
<glyph name="saraAa-thai" format="2">
  <advance width="381"/>
  <unicode hex="0E32"/>
  <outline>
    <contour>
      <point x="167" y="0" type="line"/>
      <point x="329" y="0" type="line"/>
      <point x="329" y="386" type="line" smooth="yes"/>
      <point x="329" y="520"/>
      <point x="258" y="562"/>
      <point x="164" y="562" type="curve" smooth="yes"/>
      <point x="106" y="562"/>
      <point x="58" y="545"/>
      <point x="34" y="532" type="curve"/>
      <point x="34" y="404" type="line"/>
      <point x="54" y="420"/>
      <point x="81" y="434"/>
      <point x="112" y="434" type="curve" smooth="yes"/>
      <point x="147" y="434"/>
      <point x="167" y="411"/>
      <point x="167" y="357" type="curve" smooth="yes"/>
    </contour>
  </outline>
</glyph>
<glyph name="saraI-thai" format="2">
  <unicode hex="0E34"/>
  <anchor x="-56" y="536" name="_top"/>
  <anchor x="-56" y="713" name="top"/>
  <outline>
    <contour>
      <point x="-441" y="622" type="line"/>
      <point x="-56" y="622" type="line"/>
      <point x="-56" y="734" type="line"/>
      <point x="-342" y="734" type="line"/>
      <point x="-441" y="689" type="line"/>
    </contour>
  </outline>
</glyph>
<glyph name="saraIi-thai" format="2">
  <unicode hex="0E35"/>
  <anchor x="-55" y="536" name="_top"/>
  <anchor x="-55" y="772" name="top"/>
  <outline>
    <contour>
      <point x="-441" y="622" type="line"/>
      <point x="-55" y="622" type="line"/>
      <point x="-55" y="734" type="line"/>
      <point x="-342" y="734" type="line"/>
      <point x="-441" y="689" type="line"/>
    </contour>
    <contour>
      <point x="-189" y="687" type="line"/>
      <point x="-55" y="687" type="line"/>
      <point x="-55" y="800" type="line"/>
      <point x="-189" y="800" type="line"/>
    </contour>
  </outline>
</glyph>
<glyph name="saraUe-thai" format="2">
  <unicode hex="0E36"/>
  <anchor x="-55" y="536" name="_top"/>
  <anchor x="-54" y="772" name="top"/>
  <outline>
    <contour>
      <point x="-441" y="622" type="line"/>
      <point x="-120" y="622" type="line" smooth="yes"/>
      <point x="-57" y="622"/>
      <point x="-29" y="663"/>
      <point x="-29" y="717" type="curve" smooth="yes"/>
      <point x="-29" y="772"/>
      <point x="-62" y="813"/>
      <point x="-118" y="813" type="curve" smooth="yes"/>
      <point x="-172" y="813"/>
      <point x="-204" y="775"/>
      <point x="-204" y="726" type="curve" smooth="yes"/>
      <point x="-204" y="716"/>
      <point x="-202" y="704"/>
      <point x="-199" y="692" type="curve"/>
      <point x="-166" y="734" type="line"/>
      <point x="-342" y="734" type="line"/>
      <point x="-441" y="689" type="line"/>
    </contour>
    <contour>
      <point x="-119" y="677" type="curve" smooth="yes"/>
      <point x="-143" y="677"/>
      <point x="-155" y="695"/>
      <point x="-155" y="717" type="curve" smooth="yes"/>
      <point x="-155" y="739"/>
      <point x="-142" y="756"/>
      <point x="-121" y="756" type="curve" smooth="yes"/>
      <point x="-99" y="756"/>
      <point x="-86" y="739"/>
      <point x="-86" y="716" type="curve" smooth="yes"/>
      <point x="-86" y="694"/>
      <point x="-97" y="677"/>
    </contour>
  </outline>
</glyph>
<glyph name="saraUee-thai" format="2">
  <unicode hex="0E37"/>
  <anchor x="-56" y="536" name="_top"/>
  <anchor x="-84" y="772" name="top"/>
  <outline>
    <contour>
      <point x="-441" y="622" type="line"/>
      <point x="-56" y="622" type="line"/>
      <point x="-56" y="734" type="line"/>
      <point x="-342" y="734" type="line"/>
      <point x="-441" y="689" type="line"/>
    </contour>
    <contour>
      <point x="-273" y="687" type="line"/>
      <point x="-183" y="687" type="line"/>
      <point x="-183" y="800" type="line"/>
      <point x="-273" y="800" type="line"/>
    </contour>
    <contour>
      <point x="-146" y="687" type="line"/>
      <point x="-56" y="687" type="line"/>
      <point x="-56" y="800" type="line"/>
      <point x="-146" y="800" type="line"/>
    </contour>
  </outline>
</glyph>
<glyph name="saraU-thai" format="2">
  <unicode hex="0E38"/>
  <anchor x="-55" y="0" name="_bottom"/>
  <anchor x="-55" y="-271" name="bottom"/>
  <outline>
    <contour>
      <point x="-193" y="-261" type="line"/>
      <point x="-55" y="-261" type="line"/>
      <point x="-55" y="-139" type="line" smooth="yes"/>
      <point x="-55" y="-93"/>
      <point x="-75" y="-64"/>
      <point x="-140" y="-64" type="curve" smooth="yes"/>
      <point x="-180" y="-64"/>
      <point x="-216" y="-73"/>
      <point x="-231" y="-80" type="curve"/>
      <point x="-226" y="-154" type="line"/>
      <point x="-221" y="-152"/>
      <point x="-215" y="-150"/>
      <point x="-210" y="-150" type="curve" smooth="yes"/>
      <point x="-198" y="-150"/>
      <point x="-193" y="-158"/>
      <point x="-193" y="-175" type="curve" smooth="yes"/>
    </contour>
  </outline>
</glyph>
<glyph name="phinthu-thai" format="2">
  <unicode hex="0E3A"/>
  <anchor x="-55" y="0" name="_bottom"/>
  <anchor x="-55" y="-219" name="bottom"/>
  <outline>
    <contour>
      <point x="-128" y="-210" type="curve" smooth="yes"/>
      <point x="-83" y="-210"/>
      <point x="-57" y="-182"/>
      <point x="-57" y="-131" type="curve" smooth="yes"/>
      <point x="-57" y="-80"/>
      <point x="-83" y="-52"/>
      <point x="-128" y="-52" type="curve" smooth="yes"/>
      <point x="-173" y="-52"/>
      <point x="-199" y="-80"/>
      <point x="-199" y="-131" type="curve" smooth="yes"/>
      <point x="-199" y="-182"/>
      <point x="-173" y="-210"/>
    </contour>
  </outline>
</glyph>
<glyph name="baht" format="2">
  <advance width="495"/>
  <unicode hex="0E3F"/>
  <outline>
    <contour>
      <point x="70" y="35" type="line"/>
      <point x="252" y="35" type="line" smooth="yes"/>
      <point x="366" y="35"/>
      <point x="436" y="107"/>
      <point x="436" y="224" type="curve" smooth="yes"/>
      <point x="436" y="302"/>
      <point x="412" y="351"/>
      <point x="351" y="372" type="curve"/>
      <point x="351" y="377" type="line"/>
      <point x="397" y="392"/>
      <point x="427" y="447"/>
      <point x="427" y="518" type="curve" smooth="yes"/>
      <point x="427" y="628"/>
      <point x="365" y="678"/>
      <point x="236" y="678" type="curve" smooth="yes"/>
      <point x="70" y="678" type="line"/>
    </contour>
    <contour>
      <point x="186" y="162" type="line"/>
      <point x="186" y="308" type="line"/>
      <point x="259" y="308" type="line" smooth="yes"/>
      <point x="297" y="308"/>
      <point x="317" y="282"/>
      <point x="317" y="236" type="curve" smooth="yes"/>
      <point x="317" y="187"/>
      <point x="298" y="162"/>
      <point x="261" y="162" type="curve" smooth="yes"/>
    </contour>
    <contour>
      <point x="186" y="428" type="line"/>
      <point x="186" y="554" type="line"/>
      <point x="253" y="554" type="line" smooth="yes"/>
      <point x="290" y="554"/>
      <point x="308" y="534"/>
      <point x="308" y="495" type="curve" smooth="yes"/>
      <point x="308" y="450"/>
      <point x="289" y="428"/>
      <point x="256" y="428" type="curve" smooth="yes"/>
    </contour>
    <contour>
      <point x="222" y="-59" type="line"/>
      <point x="266" y="-59" type="line"/>
      <point x="266" y="760" type="line"/>
      <point x="222" y="760" type="line"/>
    </contour>
  </outline>
</glyph>
<glyph name="saraE-thai" format="2">
  <advance width="306"/>
  <unicode hex="0E40"/>
  <outline>
    <contour>
      <point x="193" y="-10" type="curve" smooth="yes"/>
      <point x="231" y="-10"/>
      <point x="264" y="-2"/>
      <point x="283" y="11" type="curve"/>
      <point x="271" y="113" type="line"/>
      <point x="264" y="109"/>
      <point x="253" y="106"/>
      <point x="247" y="106" type="curve" smooth="yes"/>
      <point x="231" y="106"/>
      <point x="225" y="118"/>
      <point x="225" y="142" type="curve" smooth="yes"/>
      <point x="225" y="548" type="line"/>
      <point x="63" y="548" type="line"/>
      <point x="63" y="123" type="line" smooth="yes"/>
      <point x="63" y="35"/>
      <point x="98" y="-10"/>
    </contour>
  </outline>
</glyph>
<glyph name="saraO-thai" format="2">
  <advance width="312"/>
  <unicode hex="0E42"/>
  <outline>
    <contour>
      <point x="81" y="448" type="line"/>
      <point x="243" y="448" type="line"/>
      <point x="243" y="587" type="line" smooth="yes"/>
      <point x="243" y="652"/>
      <point x="236" y="691"/>
      <point x="203" y="712" type="curve"/>
      <point x="204" y="716" type="line"/>
      <point x="312" y="716" type="line"/>
      <point x="312" y="832" type="line"/>
      <point x="120" y="832" type="line"/>
      <point x="21" y="781" type="line"/>
      <point x="21" y="716" type="line"/>
      <point x="66" y="716"/>
      <point x="81" y="684"/>
      <point x="81" y="604" type="curve" smooth="yes"/>
    </contour>
    <component base="saraE-thai" xOffset="18"/>
  </outline>
</glyph>
<glyph name="saraAiMaimuan-thai" format="2">
  <advance width="306"/>
  <unicode hex="0E43"/>
  <outline>
    <contour>
      <point x="198" y="-10" type="curve" smooth="yes"/>
      <point x="237" y="-10"/>
      <point x="269" y="-2"/>
      <point x="289" y="11" type="curve"/>
      <point x="277" y="113" type="line"/>
      <point x="269" y="109"/>
      <point x="259" y="106"/>
      <point x="252" y="106" type="curve" smooth="yes"/>
      <point x="237" y="106"/>
      <point x="230" y="118"/>
      <point x="230" y="142" type="curve" smooth="yes"/>
      <point x="230" y="484" type="line" smooth="yes"/>
      <point x="230" y="533"/>
      <point x="244" y="545"/>
      <point x="269" y="590" type="curve" smooth="yes"/>
      <point x="286" y="621"/>
      <point x="305" y="659"/>
      <point x="305" y="713" type="curve" smooth="yes"/>
      <point x="305" y="802"/>
      <point x="247" y="847"/>
      <point x="153" y="847" type="curve" smooth="yes"/>
      <point x="86" y="847"/>
      <point x="36" y="827"/>
      <point x="22" y="817" type="curve"/>
      <point x="22" y="699" type="line"/>
      <point x="39" y="714"/>
      <point x="58" y="724"/>
      <point x="82" y="724" type="curve" smooth="yes"/>
      <point x="119" y="724"/>
      <point x="134" y="705"/>
      <point x="134" y="675" type="curve" smooth="yes"/>
      <point x="134" y="647"/>
      <point x="115" y="628"/>
      <point x="100" y="600" type="curve" smooth="yes"/>
      <point x="76" y="555"/>
      <point x="68" y="540"/>
      <point x="68" y="489" type="curve" smooth="yes"/>
      <point x="68" y="123" type="line" smooth="yes"/>
      <point x="68" y="35"/>
      <point x="103" y="-10"/>
    </contour>
  </outline>
</glyph>
<glyph name="saraAiMaimalai-thai" format="2">
  <advance width="316"/>
  <unicode hex="0E44"/>
  <outline>
    <contour>
      <point x="83" y="448" type="line"/>
      <point x="245" y="448" type="line"/>
      <point x="245" y="604" type="line" smooth="yes"/>
      <point x="245" y="689"/>
      <point x="278" y="716"/>
      <point x="316" y="716" type="curve"/>
      <point x="316" y="832" type="line"/>
      <point x="39" y="832" type="line"/>
      <point x="14" y="716" type="line"/>
      <point x="122" y="716" type="line"/>
      <point x="123" y="712" type="line"/>
      <point x="102" y="692"/>
      <point x="83" y="662"/>
      <point x="83" y="587" type="curve" smooth="yes"/>
    </contour>
    <component base="saraE-thai" xOffset="20"/>
  </outline>
</glyph>
<glyph name="maiyamok-thai" format="2">
  <advance width="540"/>
  <unicode hex="0E46"/>
  <outline>
    <contour>
      <point x="326" y="-214" type="line"/>
      <point x="488" y="-214" type="line"/>
      <point x="488" y="410" type="line" smooth="yes"/>
      <point x="488" y="533"/>
      <point x="433" y="562"/>
      <point x="367" y="562" type="curve" smooth="yes"/>
      <point x="318" y="562"/>
      <point x="286" y="546"/>
      <point x="270" y="510" type="curve"/>
      <point x="266" y="510" type="line"/>
      <point x="250" y="546"/>
      <point x="217" y="562"/>
      <point x="173" y="562" type="curve" smooth="yes"/>
      <point x="93" y="562"/>
      <point x="38" y="509"/>
      <point x="38" y="378" type="curve" smooth="yes"/>
      <point x="38" y="248"/>
      <point x="92" y="186"/>
      <point x="174" y="186" type="curve" smooth="yes"/>
      <point x="211" y="186"/>
      <point x="241" y="199"/>
      <point x="256" y="214" type="curve"/>
      <point x="230" y="313" type="line"/>
      <point x="224" y="310"/>
      <point x="217" y="308"/>
      <point x="210" y="308" type="curve" smooth="yes"/>
      <point x="191" y="308"/>
      <point x="182" y="325"/>
      <point x="182" y="378" type="curve" smooth="yes"/>
      <point x="182" y="431"/>
      <point x="191" y="448"/>
      <point x="204" y="448" type="curve" smooth="yes"/>
      <point x="215" y="448"/>
      <point x="224" y="435"/>
      <point x="224" y="406" type="curve" smooth="yes"/>
      <point x="224" y="375" type="line"/>
      <point x="286" y="375" type="line"/>
      <point x="286" y="406" type="line" smooth="yes"/>
      <point x="286" y="436"/>
      <point x="294" y="448"/>
      <point x="306" y="448" type="curve" smooth="yes"/>
      <point x="318" y="448"/>
      <point x="326" y="436"/>
      <point x="326" y="406" type="curve" smooth="yes"/>
    </contour>
  </outline>
</glyph>
<glyph name="maitaikhu-thai" format="2">
  <unicode hex="0E47"/>
  <anchor x="-55" y="536" name="_top"/>
  <anchor x="-163" y="845" name="top"/>
  <outline>
    <contour>
      <point x="-165" y="614" type="curve" smooth="yes"/>
      <point x="-113" y="614"/>
      <point x="-80" y="647"/>
      <point x="-80" y="720" type="curve" smooth="yes"/>
      <point x="-80" y="741" type="line"/>
      <point x="-186" y="741" type="line"/>
      <point x="-186" y="726" type="line" smooth="yes"/>
      <point x="-186" y="706"/>
      <point x="-192" y="692"/>
      <point x="-204" y="692" type="curve" smooth="yes"/>
      <point x="-220" y="692"/>
      <point x="-228" y="712"/>
      <point x="-230" y="737" type="curve"/>
      <point x="-248" y="737" type="line"/>
      <point x="-276" y="695" type="line"/>
      <point x="-286" y="695"/>
      <point x="-292" y="712"/>
      <point x="-292" y="736" type="curve" smooth="yes"/>
      <point x="-292" y="768"/>
      <point x="-280" y="783"/>
      <point x="-265" y="783" type="curve" smooth="yes"/>
      <point x="-81" y="783" type="line"/>
      <point x="-81" y="859" type="line"/>
      <point x="-293" y="859" type="line" smooth="yes"/>
      <point x="-348" y="859"/>
      <point x="-398" y="820"/>
      <point x="-398" y="738" type="curve" smooth="yes"/>
      <point x="-398" y="659"/>
      <point x="-352" y="617"/>
      <point x="-279" y="617" type="curve"/>
      <point x="-239" y="659" type="line"/>
      <point x="-224" y="630"/>
      <point x="-200" y="614"/>
    </contour>
  </outline>
</glyph>
<glyph name="maiEk-thai" format="2">
  <unicode hex="0E48"/>
  <anchor x="-55" y="536" name="_top"/>
  <anchor x="-55" y="845" name="top"/>
  <outline>
    <contour>
      <point x="-208" y="622" type="line"/>
      <point x="-64" y="622" type="line"/>
      <point x="-64" y="852" type="line"/>
      <point x="-208" y="852" type="line"/>
    </contour>
  </outline>
</glyph>
<glyph name="maiTho-thai" format="2">
  <unicode hex="0E49"/>
  <anchor x="-55" y="536" name="_top"/>
  <anchor x="-107" y="845" name="top"/>
  <outline>
    <contour>
      <point x="-266" y="621" type="line"/>
      <point x="-26" y="621" type="line"/>
      <point x="-26" y="723" type="line"/>
      <point x="-138" y="723" type="line"/>
      <point x="-139" y="696" type="line"/>
      <point x="-109" y="712"/>
      <point x="-103" y="739"/>
      <point x="-103" y="767" type="curve" smooth="yes"/>
      <point x="-103" y="823"/>
      <point x="-134" y="851"/>
      <point x="-186" y="851" type="curve" smooth="yes"/>
      <point x="-212" y="851"/>
      <point x="-254" y="845"/>
      <point x="-275" y="822" type="curve"/>
      <point x="-260" y="753" type="line"/>
      <point x="-254" y="757"/>
      <point x="-245" y="762"/>
      <point x="-240" y="762" type="curve" smooth="yes"/>
      <point x="-229" y="762"/>
      <point x="-219" y="751"/>
      <point x="-219" y="732" type="curve" smooth="yes"/>
      <point x="-219" y="694"/>
      <point x="-255" y="680"/>
      <point x="-266" y="672" type="curve"/>
    </contour>
  </outline>
</glyph>
<glyph name="maiTri-thai" format="2">
  <unicode hex="0E4A"/>
  <anchor x="-55" y="536" name="_top"/>
  <anchor x="-137" y="845" name="top"/>
  <outline>
    <contour>
      <point x="-283" y="617" type="curve" smooth="yes"/>
      <point x="-265" y="617"/>
      <point x="-239" y="621"/>
      <point x="-231" y="628" type="curve"/>
      <point x="-234" y="695" type="line"/>
      <point x="-240" y="693"/>
      <point x="-243" y="693"/>
      <point x="-246" y="693" type="curve" smooth="yes"/>
      <point x="-260" y="693"/>
      <point x="-267" y="707"/>
      <point x="-267" y="728" type="curve" smooth="yes"/>
      <point x="-267" y="751"/>
      <point x="-258" y="761"/>
      <point x="-250" y="763" type="curve"/>
      <point x="-228" y="742" type="line"/>
      <point x="-225" y="742" type="line"/>
      <point x="-203" y="763" type="line"/>
      <point x="-195" y="762"/>
      <point x="-185" y="751"/>
      <point x="-185" y="728" type="curve" smooth="yes"/>
      <point x="-185" y="706"/>
      <point x="-193" y="696"/>
      <point x="-205" y="690" type="curve"/>
      <point x="-205" y="622" type="line"/>
      <point x="-25" y="622" type="line"/>
      <point x="-25" y="718" type="line"/>
      <point x="-94" y="718" type="line"/>
      <point x="-92" y="702" type="line"/>
      <point x="-84" y="714"/>
      <point x="-77" y="733"/>
      <point x="-77" y="758" type="curve" smooth="yes"/>
      <point x="-77" y="806"/>
      <point x="-103" y="846"/>
      <point x="-183" y="850" type="curve"/>
      <point x="-227" y="812" type="line"/>
      <point x="-281" y="850" type="line"/>
      <point x="-341" y="847"/>
      <point x="-380" y="802"/>
      <point x="-380" y="731" type="curve" smooth="yes"/>
      <point x="-380" y="661"/>
      <point x="-344" y="617"/>
    </contour>
  </outline>
</glyph>
<glyph name="maiChattawa-thai" format="2">
  <unicode hex="0E4B"/>
  <anchor x="-55" y="536" name="_top"/>
  <anchor x="-55" y="845" name="top"/>
  <outline>
    <contour>
      <point x="-201" y="622" type="line"/>
      <point x="-73" y="622" type="line"/>
      <point x="-73" y="852" type="line"/>
      <point x="-201" y="852" type="line"/>
    </contour>
    <contour>
      <point x="-250" y="691" type="line"/>
      <point x="-23" y="691" type="line"/>
      <point x="-23" y="783" type="line"/>
      <point x="-250" y="783" type="line"/>
    </contour>
  </outline>
</glyph>
<glyph name="thanthakhat-thai" format="2">
  <unicode hex="0E4C"/>
  <anchor x="-55" y="536" name="_top"/>
  <anchor x="-53" y="771" name="top"/>
  <outline>
    <contour>
      <point x="-217" y="601" type="curve"/>
      <point x="-96" y="623" type="line"/>
      <point x="-100" y="633"/>
      <point x="-102" y="643"/>
      <point x="-102" y="653" type="curve" smooth="yes"/>
      <point x="-102" y="674"/>
      <point x="-91" y="682"/>
      <point x="-72" y="682" type="curve" smooth="yes"/>
      <point x="-8" y="682" type="line"/>
      <point x="-8" y="790" type="line"/>
      <point x="-130" y="790" type="line" smooth="yes"/>
      <point x="-210" y="790"/>
      <point x="-235" y="743"/>
      <point x="-235" y="685" type="curve" smooth="yes"/>
      <point x="-235" y="653"/>
      <point x="-228" y="621"/>
    </contour>
  </outline>
</glyph>
<glyph name="nikhahit-thai" format="2">
  <unicode hex="0E4D"/>
  <anchor x="-55" y="536" name="_top"/>
  <anchor x="-73" y="772" name="top"/>
  <outline>
    <contour>
      <point x="-152" y="600" type="curve" smooth="yes"/>
      <point x="-84" y="600"/>
      <point x="-41" y="637"/>
      <point x="-41" y="701" type="curve" smooth="yes"/>
      <point x="-41" y="765"/>
      <point x="-84" y="802"/>
      <point x="-152" y="802" type="curve" smooth="yes"/>
      <point x="-218" y="802"/>
      <point x="-262" y="765"/>
      <point x="-262" y="701" type="curve" smooth="yes"/>
      <point x="-262" y="637"/>
      <point x="-218" y="600"/>
    </contour>
    <contour>
      <point x="-152" y="661" type="curve" smooth="yes"/>
      <point x="-172" y="661"/>
      <point x="-185" y="676"/>
      <point x="-185" y="701" type="curve" smooth="yes"/>
      <point x="-185" y="726"/>
      <point x="-172" y="741"/>
      <point x="-152" y="741" type="curve" smooth="yes"/>
      <point x="-130" y="741"/>
      <point x="-118" y="726"/>
      <point x="-118" y="701" type="curve" smooth="yes"/>
      <point x="-118" y="676"/>
      <point x="-130" y="661"/>
    </contour>
  </outline>
</glyph>
<glyph name="yamakkan-thai" format="2">
  <unicode hex="0E4E"/>
  <anchor x="-55" y="536" name="_top"/>
  <anchor x="-54" y="770" name="top"/>
  <outline>
    <contour>
      <point x="-231" y="602" type="curve"/>
      <point x="-134" y="619" type="line"/>
      <point x="-137" y="626"/>
      <point x="-138" y="632"/>
      <point x="-138" y="639" type="curve" smooth="yes"/>
      <point x="-138" y="654"/>
      <point x="-132" y="667"/>
      <point x="-117" y="667" type="curve" smooth="yes"/>
      <point x="-111" y="667"/>
      <point x="-102" y="666"/>
      <point x="-95" y="657" type="curve"/>
      <point x="-60" y="684" type="line"/>
      <point x="-65" y="692"/>
      <point x="-65" y="701"/>
      <point x="-65" y="708" type="curve" smooth="yes"/>
      <point x="-65" y="730"/>
      <point x="-50" y="741"/>
      <point x="-34" y="741" type="curve" smooth="yes"/>
      <point x="-25" y="741"/>
      <point x="-14" y="739"/>
      <point x="-7" y="735" type="curve"/>
      <point x="-7" y="805" type="line"/>
      <point x="-23" y="814"/>
      <point x="-47" y="817"/>
      <point x="-62" y="817" type="curve" smooth="yes"/>
      <point x="-103" y="817"/>
      <point x="-140" y="795"/>
      <point x="-140" y="746" type="curve" smooth="yes"/>
      <point x="-140" y="732"/>
      <point x="-138" y="714"/>
      <point x="-129" y="703" type="curve"/>
      <point x="-116" y="713" type="line"/>
      <point x="-129" y="724"/>
      <point x="-142" y="734"/>
      <point x="-168" y="734" type="curve" smooth="yes"/>
      <point x="-211" y="734"/>
      <point x="-245" y="710"/>
      <point x="-245" y="657" type="curve" smooth="yes"/>
      <point x="-245" y="635"/>
      <point x="-239" y="616"/>
    </contour>
  </outline>
</glyph>
<glyph name="fongman-thai" format="2">
  <advance width="548"/>
  <unicode hex="0E4F"/>
  <outline>
    <contour>
      <point x="274" y="-14" type="curve" smooth="yes"/>
      <point x="435" y="-14"/>
      <point x="499" y="80"/>
      <point x="499" y="228" type="curve" smooth="yes"/>
      <point x="499" y="382"/>
      <point x="435" y="469"/>
      <point x="274" y="469" type="curve" smooth="yes"/>
      <point x="114" y="469"/>
      <point x="49" y="382"/>
      <point x="49" y="228" type="curve" smooth="yes"/>
      <point x="49" y="80"/>
      <point x="114" y="-14"/>
    </contour>
    <contour>
      <point x="274" y="74" type="curve" smooth="yes"/>
      <point x="188" y="74"/>
      <point x="150" y="130"/>
      <point x="150" y="228" type="curve" smooth="yes"/>
      <point x="150" y="333"/>
      <point x="188" y="381"/>
      <point x="274" y="381" type="curve" smooth="yes"/>
      <point x="360" y="381"/>
      <point x="399" y="333"/>
      <point x="399" y="228" type="curve" smooth="yes"/>
      <point x="399" y="130"/>
      <point x="360" y="74"/>
    </contour>
    <contour>
      <point x="274" y="126" type="curve" smooth="yes"/>
      <point x="332" y="126"/>
      <point x="356" y="168"/>
      <point x="356" y="228" type="curve" smooth="yes"/>
      <point x="356" y="294"/>
      <point x="332" y="329"/>
      <point x="274" y="329" type="curve" smooth="yes"/>
      <point x="216" y="329"/>
      <point x="193" y="294"/>
      <point x="193" y="228" type="curve" smooth="yes"/>
      <point x="193" y="168"/>
      <point x="216" y="126"/>
    </contour>
  </outline>
</glyph>
<glyph name="zero-thai" format="2">
  <advance width="450"/>
  <unicode hex="0E50"/>
  <outline>
    <contour>
      <point x="225" y="-14" type="curve" smooth="yes"/>
      <point x="351" y="-14"/>
      <point x="419" y="80"/>
      <point x="419" y="228" type="curve" smooth="yes"/>
      <point x="419" y="382"/>
      <point x="351" y="469"/>
      <point x="225" y="469" type="curve" smooth="yes"/>
      <point x="99" y="469"/>
      <point x="31" y="382"/>
      <point x="31" y="228" type="curve" smooth="yes"/>
      <point x="31" y="80"/>
      <point x="99" y="-14"/>
    </contour>
    <contour>
      <point x="225" y="107" type="curve" smooth="yes"/>
      <point x="196" y="107"/>
      <point x="184" y="147"/>
      <point x="184" y="228" type="curve" smooth="yes"/>
      <point x="184" y="313"/>
      <point x="196" y="348"/>
      <point x="225" y="348" type="curve" smooth="yes"/>
      <point x="255" y="348"/>
      <point x="266" y="313"/>
      <point x="266" y="228" type="curve" smooth="yes"/>
      <point x="266" y="147"/>
      <point x="255" y="107"/>
    </contour>
  </outline>
</glyph>
<glyph name="two-thai" format="2">
  <advance width="555"/>
  <unicode hex="0E52"/>
  <outline>
    <contour>
      <point x="283" y="-14" type="curve" smooth="yes"/>
      <point x="460" y="-14"/>
      <point x="515" y="74"/>
      <point x="515" y="217" type="curve" smooth="yes"/>
      <point x="515" y="351" type="line" smooth="yes"/>
      <point x="515" y="432"/>
      <point x="480" y="464"/>
      <point x="417" y="464" type="curve" smooth="yes"/>
      <point x="381" y="464"/>
      <point x="359" y="449"/>
      <point x="351" y="422" type="curve"/>
      <point x="348" y="422" type="line"/>
      <point x="341" y="451"/>
      <point x="320" y="464"/>
      <point x="293" y="464" type="curve" smooth="yes"/>
      <point x="223" y="464"/>
      <point x="201" y="409"/>
      <point x="201" y="328" type="curve" smooth="yes"/>
      <point x="201" y="233"/>
      <point x="240" y="186"/>
      <point x="306" y="186" type="curve" smooth="yes"/>
      <point x="329" y="186"/>
      <point x="348" y="193"/>
      <point x="359" y="204" type="curve"/>
      <point x="338" y="280" type="line"/>
      <point x="331" y="276"/>
      <point x="326" y="274"/>
      <point x="317" y="274" type="curve" smooth="yes"/>
      <point x="305" y="274"/>
      <point x="300" y="291"/>
      <point x="300" y="322" type="curve" smooth="yes"/>
      <point x="300" y="352"/>
      <point x="303" y="369"/>
      <point x="311" y="369" type="curve" smooth="yes"/>
      <point x="322" y="369"/>
      <point x="323" y="355"/>
      <point x="325" y="342" type="curve"/>
      <point x="352" y="342" type="line"/>
      <point x="354" y="355"/>
      <point x="356" y="369"/>
      <point x="363" y="369" type="curve" smooth="yes"/>
      <point x="370" y="369"/>
      <point x="372" y="358"/>
      <point x="372" y="337" type="curve" smooth="yes"/>
      <point x="372" y="231" type="line" smooth="yes"/>
      <point x="372" y="150"/>
      <point x="339" y="106"/>
      <point x="286" y="106" type="curve" smooth="yes"/>
      <point x="221" y="106"/>
      <point x="190" y="152"/>
      <point x="190" y="228" type="curve" smooth="yes"/>
      <point x="190" y="584" type="line"/>
      <point x="40" y="584" type="line"/>
      <point x="40" y="214" type="line" smooth="yes"/>
      <point x="40" y="73"/>
      <point x="107" y="-14"/>
    </contour>
  </outline>
</glyph>
<glyph name="eight-thai" format="2">
  <advance width="452"/>
  <unicode hex="0E58"/>
  <outline>
    <contour>
      <point x="305" y="-14" type="curve" smooth="yes"/>
      <point x="378" y="-14"/>
      <point x="420" y="39"/>
      <point x="420" y="154" type="curve" smooth="yes"/>
      <point x="420" y="207"/>
      <point x="411" y="258"/>
      <point x="377" y="290" type="curve"/>
      <point x="275" y="230" type="line"/>
      <point x="287" y="214"/>
      <point x="297" y="192"/>
      <point x="297" y="162" type="curve" smooth="yes"/>
      <point x="297" y="133"/>
      <point x="288" y="114"/>
      <point x="274" y="114" type="curve" smooth="yes"/>
      <point x="262" y="114"/>
      <point x="257" y="127"/>
      <point x="256" y="157" type="curve"/>
      <point x="205" y="157" type="line"/>
      <point x="196" y="127" type="line"/>
      <point x="184" y="130"/>
      <point x="171" y="162"/>
      <point x="171" y="222" type="curve" smooth="yes"/>
      <point x="171" y="307"/>
      <point x="197" y="348"/>
      <point x="238" y="348" type="curve" smooth="yes"/>
      <point x="291" y="348" type="line" smooth="yes"/>
      <point x="358" y="348"/>
      <point x="397" y="399"/>
      <point x="397" y="487" type="curve" smooth="yes"/>
      <point x="397" y="584" type="line"/>
      <point x="246" y="584" type="line"/>
      <point x="246" y="520" type="line" smooth="yes"/>
      <point x="246" y="475"/>
      <point x="238" y="460"/>
      <point x="219" y="460" type="curve" smooth="yes"/>
      <point x="203" y="460" type="line" smooth="yes"/>
      <point x="66" y="460"/>
      <point x="31" y="352"/>
      <point x="31" y="219" type="curve" smooth="yes"/>
      <point x="31" y="63"/>
      <point x="79" y="-11"/>
      <point x="176" y="-10" type="curve"/>
      <point x="228" y="77" type="line"/>
      <point x="213" y="77" type="line"/>
      <point x="220" y="13"/>
      <point x="253" y="-14"/>
    </contour>
  </outline>
</glyph>
<glyph name="nine-thai" format="2">
  <advance width="470"/>
  <unicode hex="0E59"/>
  <outline>
    <contour>
      <point x="169" y="-10" type="curve" smooth="yes"/>
      <point x="195" y="-10"/>
      <point x="229" y="-5"/>
      <point x="247" y="3" type="curve"/>
      <point x="229" y="108" type="line"/>
      <point x="226" y="104"/>
      <point x="222" y="103"/>
      <point x="217" y="103" type="curve" smooth="yes"/>
      <point x="192" y="103"/>
      <point x="184" y="148"/>
      <point x="184" y="236" type="curve" smooth="yes"/>
      <point x="184" y="332"/>
      <point x="194" y="352"/>
      <point x="205" y="352" type="curve" smooth="yes"/>
      <point x="211" y="352"/>
      <point x="215" y="343"/>
      <point x="219" y="321" type="curve" smooth="yes"/>
      <point x="277" y="0" type="line"/>
      <point x="420" y="0" type="line"/>
      <point x="357" y="298" type="line" smooth="yes"/>
      <point x="346" y="348"/>
      <point x="350" y="369"/>
      <point x="370" y="369" type="curve" smooth="yes"/>
      <point x="381" y="369" type="line" smooth="yes"/>
      <point x="416" y="369"/>
      <point x="442" y="410"/>
      <point x="442" y="480" type="curve" smooth="yes"/>
      <point x="442" y="584" type="line"/>
      <point x="311" y="584" type="line"/>
      <point x="311" y="504" type="line" smooth="yes"/>
      <point x="311" y="478"/>
      <point x="307" y="465"/>
      <point x="289" y="465" type="curve" smooth="yes"/>
      <point x="285" y="465" type="line" smooth="yes"/>
      <point x="257" y="465"/>
      <point x="239" y="429"/>
      <point x="250" y="392" type="curve"/>
      <point x="264" y="391" type="line"/>
      <point x="248" y="445"/>
      <point x="215" y="465"/>
      <point x="161" y="465" type="curve" smooth="yes"/>
      <point x="67" y="465"/>
      <point x="31" y="402"/>
      <point x="31" y="238" type="curve" smooth="yes"/>
      <point x="31" y="81"/>
      <point x="67" y="-10"/>
    </contour>
  </outline>
</glyph>
<glyph name="angkhankhu-thai" format="2">
  <advance width="699"/>
  <unicode hex="0E5A"/>
  <outline>
    <contour>
      <point x="244" y="0" type="line"/>
      <point x="406" y="0" type="line"/>
      <point x="406" y="548" type="line"/>
      <point x="244" y="548" type="line"/>
      <point x="244" y="412" type="line" smooth="yes"/>
      <point x="244" y="358"/>
      <point x="229" y="330"/>
      <point x="200" y="330" type="curve" smooth="yes"/>
      <point x="172" y="330"/>
      <point x="158" y="355"/>
      <point x="158" y="394" type="curve" smooth="yes"/>
      <point x="158" y="432"/>
      <point x="171" y="450"/>
      <point x="188" y="450" type="curve" smooth="yes"/>
      <point x="192" y="450"/>
      <point x="197" y="449"/>
      <point x="204" y="446" type="curve"/>
      <point x="211" y="546" type="line"/>
      <point x="188" y="556"/>
      <point x="165" y="558"/>
      <point x="149" y="558" type="curve" smooth="yes"/>
      <point x="61" y="558"/>
      <point x="9" y="494"/>
      <point x="9" y="390" type="curve" smooth="yes"/>
      <point x="9" y="266"/>
      <point x="83" y="209"/>
      <point x="157" y="209" type="curve" smooth="yes"/>
      <point x="227" y="209"/>
      <point x="275" y="251"/>
      <point x="275" y="328" type="curve"/>
      <point x="244" y="324" type="line"/>
    </contour>
    <contour>
      <point x="493" y="0" type="line"/>
      <point x="655" y="0" type="line"/>
      <point x="655" y="548" type="line"/>
      <point x="493" y="548" type="line"/>
      <point x="493" y="424" type="line" smooth="yes"/>
      <point x="493" y="363"/>
      <point x="469" y="326"/>
      <point x="438" y="326" type="curve" smooth="yes"/>
      <point x="419" y="326"/>
      <point x="398" y="335"/>
      <point x="372" y="355" type="curve"/>
      <point x="335" y="260" type="line"/>
      <point x="362" y="229"/>
      <point x="397" y="213"/>
      <point x="427" y="213" type="curve" smooth="yes"/>
      <point x="477" y="213"/>
      <point x="517" y="256"/>
      <point x="518" y="340" type="curve"/>
      <point x="493" y="338" type="line"/>
    </contour>
  </outline>
</glyph>
<glyph name="hyphentwo" format="2">
  <advance width="325"/>
  <unicode hex="2010"/>
  <outline>
    <contour>
      <point x="29" y="192" type="line"/>
      <point x="296" y="192" type="line"/>
      <point x="296" y="344" type="line"/>
      <point x="29" y="344" type="line"/>
    </contour>
  </outline>
</glyph>
<glyph name="loChula-thai.short" format="2">
  <advance width="607"/>
  <anchor x="527" y="0" name="bottom"/>
  <anchor x="543" y="536" name="top"/>
  <outline>
    <contour>
      <point x="64" y="0" type="line"/>
      <point x="245" y="0" type="line"/>
      <point x="273" y="130" type="line" smooth="yes"/>
      <point x="281" y="169"/>
      <point x="289" y="205"/>
      <point x="297" y="256" type="curve"/>
      <point x="300" y="256" type="line"/>
      <point x="308" y="205"/>
      <point x="314" y="170"/>
      <point x="322" y="129" type="curve" smooth="yes"/>
      <point x="347" y="0" type="line"/>
      <point x="527" y="0" type="line"/>
      <point x="563" y="339" type="line" smooth="yes"/>
      <point x="568" y="390"/>
      <point x="557" y="440"/>
      <point x="506" y="459" type="curve"/>
      <point x="506" y="463" type="line"/>
      <point x="570" y="473"/>
      <point x="598" y="521"/>
      <point x="598" y="584" type="curve"/>
      <point x="445" y="584" type="line"/>
      <point x="442" y="544"/>
      <point x="433" y="525"/>
      <point x="390" y="525" type="curve" smooth="yes"/>
      <point x="332" y="525" type="line"/>
      <point x="332" y="426" type="line"/>
      <point x="374" y="426" type="line" smooth="yes"/>
      <point x="408" y="426"/>
      <point x="422" y="400"/>
      <point x="416" y="349" type="curve" smooth="yes"/>
      <point x="408" y="279" type="line" smooth="yes"/>
      <point x="403" y="232"/>
      <point x="402" y="189"/>
      <point x="401" y="140" type="curve"/>
      <point x="397" y="140" type="line"/>
      <point x="388" y="188"/>
      <point x="380" y="239"/>
      <point x="368" y="284" type="curve" smooth="yes"/>
      <point x="340" y="386" type="line"/>
      <point x="254" y="386" type="line"/>
      <point x="229" y="283" type="line" smooth="yes"/>
      <point x="215" y="226"/>
      <point x="203" y="178"/>
      <point x="197" y="143" type="curve"/>
      <point x="194" y="143" type="line"/>
      <point x="196" y="204"/>
      <point x="198" y="268"/>
      <point x="196" y="320" type="curve" smooth="yes"/>
      <point x="186" y="548" type="line"/>
      <point x="19" y="548" type="line"/>
    </contour>
  </outline>
</glyph>
<glyph name="lu-thai.short" format="2">
  <advance width="535"/>
  <anchor x="483" y="-157" name="bottom"/>
  <anchor x="448" y="537" name="top"/>
  <outline>
    <contour>
      <point x="321" y="-174" type="line"/>
      <point x="483" y="-174" type="line"/>
      <point x="483" y="100" type="line"/>
      <point x="321" y="100" type="line"/>
    </contour>
    <component base="phoSamphao-thai"/>
  </outline>
</glyph>
<glyph name="lu_lakkhangyao-thai" format="2">
  <advance width="802"/>
  <outline>
    <contour>
      <point x="321" y="-214" type="line"/>
      <point x="483" y="-214" type="line"/>
      <point x="483" y="331" type="line" smooth="yes"/>
      <point x="483" y="400"/>
      <point x="496" y="432"/>
      <point x="535" y="432" type="curve" smooth="yes"/>
      <point x="575" y="432"/>
      <point x="588" y="400"/>
      <point x="588" y="332" type="curve" smooth="yes"/>
      <point x="588" y="-214" type="line"/>
      <point x="750" y="-214" type="line"/>
      <point x="750" y="354" type="line" smooth="yes"/>
      <point x="750" y="478"/>
      <point x="696" y="562"/>
      <point x="566" y="562" type="curve" smooth="yes"/>
      <point x="491" y="562"/>
      <point x="440" y="529"/>
      <point x="413" y="473" type="curve"/>
      <point x="410" y="473" type="line"/>
      <point x="388" y="530"/>
      <point x="333" y="562"/>
      <point x="263" y="562" type="curve" smooth="yes"/>
      <point x="123" y="562"/>
      <point x="54" y="479"/>
      <point x="54" y="377" type="curve" smooth="yes"/>
      <point x="54" y="353" type="line"/>
      <point x="136" y="314" type="line"/>
      <point x="135" y="310" type="line"/>
      <point x="94" y="296"/>
      <point x="77" y="261"/>
      <point x="77" y="199" type="curve" smooth="yes"/>
      <point x="77" y="130" type="line" smooth="yes"/>
      <point x="77" y="106"/>
      <point x="69" y="95"/>
      <point x="51" y="95" type="curve" smooth="yes"/>
      <point x="46" y="95"/>
      <point x="41" y="96"/>
      <point x="35" y="99" type="curve"/>
      <point x="21" y="12" type="line"/>
      <point x="40" y="-1"/>
      <point x="71" y="-10"/>
      <point x="110" y="-10" type="curve" smooth="yes"/>
      <point x="183" y="-10"/>
      <point x="234" y="24"/>
      <point x="234" y="111" type="curve" smooth="yes"/>
      <point x="234" y="192" type="line" smooth="yes"/>
      <point x="234" y="243"/>
      <point x="238" y="265"/>
      <point x="261" y="266" type="curve"/>
      <point x="271" y="334" type="line"/>
      <point x="221" y="370" type="line"/>
      <point x="224" y="404"/>
      <point x="232" y="432"/>
      <point x="267" y="432" type="curve" smooth="yes"/>
      <point x="309" y="432"/>
      <point x="321" y="400"/>
      <point x="321" y="335" type="curve" smooth="yes"/>
    </contour>
  </outline>
</glyph>
<glyph name="maiChattawa-thai.narrow" format="2">
  <anchor x="-242" y="536" name="_top"/>
  <anchor x="-287" y="844" name="top"/>
  <outline>
    <contour>
      <point x="-419" y="622" type="line"/>
      <point x="-291" y="622" type="line"/>
      <point x="-291" y="852" type="line"/>
      <point x="-419" y="852" type="line"/>
    </contour>
    <contour>
      <point x="-468" y="691" type="line"/>
      <point x="-241" y="691" type="line"/>
      <point x="-241" y="783" type="line"/>
      <point x="-468" y="783" type="line"/>
    </contour>
  </outline>
</glyph>
<glyph name="maiChattawa-thai.small" format="2">
  <anchor x="-66" y="772" name="_top"/>
  <anchor x="-63" y="1042" name="top"/>
  <outline>
    <contour>
      <point x="-192" y="852" type="line"/>
      <point x="-72" y="852" type="line"/>
      <point x="-72" y="1042" type="line"/>
      <point x="-192" y="1042" type="line"/>
    </contour>
    <contour>
      <point x="-251" y="903" type="line"/>
      <point x="-13" y="903" type="line"/>
      <point x="-13" y="991" type="line"/>
      <point x="-251" y="991" type="line"/>
    </contour>
  </outline>
</glyph>
<glyph name="maiEk-thai.narrow" format="2">
  <anchor x="-242" y="536" name="_top"/>
  <anchor x="-258" y="845" name="top"/>
  <outline>
    <contour>
      <point x="-396" y="622" type="line"/>
      <point x="-252" y="622" type="line"/>
      <point x="-252" y="852" type="line"/>
      <point x="-396" y="852" type="line"/>
    </contour>
  </outline>
</glyph>
<glyph name="maiEk-thai.small" format="2">
  <anchor x="-56" y="772" name="_top"/>
  <anchor x="-56" y="1043" name="top"/>
  <outline>
    <contour>
      <point x="-190" y="852" type="line"/>
      <point x="-56" y="852" type="line"/>
      <point x="-56" y="1042" type="line"/>
      <point x="-190" y="1042" type="line"/>
    </contour>
  </outline>
</glyph>
<glyph name="maiHanaKat-thai.narrow" format="2">
  <anchor x="-245" y="536" name="_top"/>
  <anchor x="-239" y="741" name="top"/>
  <outline>
    <contour>
      <point x="-379" y="622" type="curve" smooth="yes"/>
      <point x="-245" y="622" type="line"/>
      <point x="-245" y="724" type="line"/>
      <point x="-328" y="724" type="line" smooth="yes"/>
      <point x="-350" y="724"/>
      <point x="-358" y="734"/>
      <point x="-358" y="753" type="curve" smooth="yes"/>
      <point x="-358" y="760"/>
      <point x="-357" y="771"/>
      <point x="-355" y="780" type="curve"/>
      <point x="-466" y="795" type="line"/>
      <point x="-478" y="770"/>
      <point x="-485" y="743"/>
      <point x="-485" y="719" type="curve" smooth="yes"/>
      <point x="-485" y="670"/>
      <point x="-462" y="622"/>
    </contour>
  </outline>
</glyph>
<glyph name="maiTho-thai.narrow" format="2">
  <anchor x="-242" y="536" name="_top"/>
  <anchor x="-296" y="845" name="top"/>
  <outline>
    <contour>
      <point x="-458" y="621" type="line"/>
      <point x="-242" y="621" type="line"/>
      <point x="-242" y="723" type="line"/>
      <point x="-330" y="723" type="line"/>
      <point x="-331" y="698" type="line"/>
      <point x="-302" y="714"/>
      <point x="-295" y="742"/>
      <point x="-295" y="766" type="curve" smooth="yes"/>
      <point x="-295" y="824"/>
      <point x="-326" y="851"/>
      <point x="-378" y="851" type="curve" smooth="yes"/>
      <point x="-404" y="851"/>
      <point x="-446" y="845"/>
      <point x="-467" y="822" type="curve"/>
      <point x="-452" y="753" type="line"/>
      <point x="-446" y="757"/>
      <point x="-437" y="762"/>
      <point x="-432" y="762" type="curve" smooth="yes"/>
      <point x="-421" y="762"/>
      <point x="-411" y="752"/>
      <point x="-411" y="732" type="curve" smooth="yes"/>
      <point x="-411" y="694"/>
      <point x="-447" y="680"/>
      <point x="-458" y="672" type="curve"/>
    </contour>
  </outline>
</glyph>
<glyph name="maiTho-thai.small" format="2">
  <anchor x="-56" y="772" name="_top"/>
  <anchor x="-56" y="1043" name="top"/>
  <outline>
    <contour>
      <point x="-219" y="852" type="line"/>
      <point x="15" y="852" type="line"/>
      <point x="15" y="940" type="line"/>
      <point x="-101" y="940" type="line"/>
      <point x="-95" y="918" type="line"/>
      <point x="-71" y="931"/>
      <point x="-66" y="955"/>
      <point x="-66" y="975" type="curve" smooth="yes"/>
      <point x="-66" y="1022"/>
      <point x="-95" y="1042"/>
      <point x="-144" y="1042" type="curve" smooth="yes"/>
      <point x="-169" y="1042"/>
      <point x="-207" y="1037"/>
      <point x="-227" y="1019" type="curve"/>
      <point x="-213" y="958" type="line"/>
      <point x="-207" y="965"/>
      <point x="-199" y="969"/>
      <point x="-192" y="969" type="curve" smooth="yes"/>
      <point x="-183" y="969"/>
      <point x="-173" y="960"/>
      <point x="-173" y="944" type="curve" smooth="yes"/>
      <point x="-173" y="913"/>
      <point x="-208" y="900"/>
      <point x="-219" y="894" type="curve"/>
    </contour>
  </outline>
</glyph>
<glyph name="maiTri-thai.narrow" format="2">
  <anchor x="-242" y="536" name="_top"/>
  <anchor x="-319" y="845" name="top"/>
  <outline>
    <contour>
      <point x="-439" y="617" type="curve" smooth="yes"/>
      <point x="-424" y="617"/>
      <point x="-403" y="621"/>
      <point x="-396" y="628" type="curve"/>
      <point x="-398" y="695" type="line"/>
      <point x="-403" y="693"/>
      <point x="-404" y="693"/>
      <point x="-408" y="693" type="curve" smooth="yes"/>
      <point x="-418" y="693"/>
      <point x="-424" y="710"/>
      <point x="-424" y="728" type="curve" smooth="yes"/>
      <point x="-424" y="749"/>
      <point x="-417" y="763"/>
      <point x="-411" y="764" type="curve"/>
      <point x="-393" y="744" type="line"/>
      <point x="-390" y="744" type="line"/>
      <point x="-371" y="764" type="line"/>
      <point x="-364" y="763"/>
      <point x="-357" y="751"/>
      <point x="-357" y="728" type="curve" smooth="yes"/>
      <point x="-357" y="706"/>
      <point x="-363" y="696"/>
      <point x="-372" y="690" type="curve"/>
      <point x="-372" y="622" type="line"/>
      <point x="-242" y="622" type="line"/>
      <point x="-242" y="713" type="line"/>
      <point x="-279" y="713" type="line"/>
      <point x="-277" y="694" type="line"/>
      <point x="-270" y="708"/>
      <point x="-264" y="728"/>
      <point x="-264" y="759" type="curve" smooth="yes"/>
      <point x="-264" y="810"/>
      <point x="-285" y="846"/>
      <point x="-353" y="850" type="curve"/>
      <point x="-392" y="812" type="line"/>
      <point x="-438" y="850" type="line"/>
      <point x="-486" y="847"/>
      <point x="-521" y="804"/>
      <point x="-521" y="731" type="curve" smooth="yes"/>
      <point x="-521" y="661"/>
      <point x="-490" y="617"/>
    </contour>
  </outline>
</glyph>
<glyph name="maiTri-thai.small" format="2">
  <anchor x="-56" y="772" name="_top"/>
  <anchor x="-56" y="1042" name="top"/>
  <outline>
    <contour>
      <point x="-207" y="848" type="curve" smooth="yes"/>
      <point x="-190" y="848"/>
      <point x="-169" y="852"/>
      <point x="-161" y="858" type="curve"/>
      <point x="-165" y="915" type="line"/>
      <point x="-168" y="913"/>
      <point x="-172" y="912"/>
      <point x="-176" y="912" type="curve" smooth="yes"/>
      <point x="-186" y="912"/>
      <point x="-197" y="923"/>
      <point x="-197" y="941" type="curve" smooth="yes"/>
      <point x="-197" y="959"/>
      <point x="-189" y="971"/>
      <point x="-185" y="971" type="curve"/>
      <point x="-161" y="948" type="line"/>
      <point x="-157" y="948" type="line"/>
      <point x="-133" y="971" type="line"/>
      <point x="-129" y="969"/>
      <point x="-121" y="958"/>
      <point x="-121" y="942" type="curve" smooth="yes"/>
      <point x="-121" y="925"/>
      <point x="-131" y="913"/>
      <point x="-137" y="910" type="curve"/>
      <point x="-137" y="852" type="line"/>
      <point x="27" y="852" type="line"/>
      <point x="27" y="932" type="line"/>
      <point x="-52" y="932" type="line"/>
      <point x="-49" y="916" type="line"/>
      <point x="-40" y="923"/>
      <point x="-31" y="942"/>
      <point x="-31" y="970" type="curve" smooth="yes"/>
      <point x="-31" y="1020"/>
      <point x="-66" y="1042"/>
      <point x="-126" y="1042" type="curve"/>
      <point x="-159" y="1006" type="line"/>
      <point x="-192" y="1042" type="line"/>
      <point x="-264" y="1042"/>
      <point x="-293" y="998"/>
      <point x="-293" y="943" type="curve" smooth="yes"/>
      <point x="-293" y="892"/>
      <point x="-271" y="848"/>
    </contour>
  </outline>
</glyph>
<glyph name="maitaikhu-thai.narrow" format="2">
  <anchor x="-242" y="536" name="_top"/>
  <anchor x="-274" y="824" name="top"/>
  <outline>
    <contour>
      <point x="-314" y="614" type="curve" smooth="yes"/>
      <point x="-270" y="614"/>
      <point x="-242" y="647"/>
      <point x="-242" y="720" type="curve" smooth="yes"/>
      <point x="-242" y="741" type="line"/>
      <point x="-331" y="741" type="line"/>
      <point x="-331" y="726" type="line" smooth="yes"/>
      <point x="-331" y="706"/>
      <point x="-337" y="692"/>
      <point x="-347" y="692" type="curve" smooth="yes"/>
      <point x="-360" y="692"/>
      <point x="-367" y="710"/>
      <point x="-369" y="737" type="curve"/>
      <point x="-383" y="737" type="line"/>
      <point x="-409" y="695" type="line"/>
      <point x="-416" y="695"/>
      <point x="-421" y="712"/>
      <point x="-421" y="736" type="curve" smooth="yes"/>
      <point x="-421" y="768"/>
      <point x="-412" y="783"/>
      <point x="-399" y="783" type="curve" smooth="yes"/>
      <point x="-243" y="783" type="line"/>
      <point x="-243" y="859" type="line"/>
      <point x="-423" y="859" type="line" smooth="yes"/>
      <point x="-469" y="859"/>
      <point x="-511" y="820"/>
      <point x="-511" y="738" type="curve" smooth="yes"/>
      <point x="-511" y="659"/>
      <point x="-472" y="617"/>
      <point x="-411" y="617" type="curve"/>
      <point x="-376" y="659" type="line"/>
      <point x="-363" y="630"/>
      <point x="-343" y="614"/>
    </contour>
  </outline>
</glyph>
<glyph name="ru-thai.short" format="2">
  <advance width="518"/>
  <anchor x="466" y="-157" name="bottom"/>
  <anchor x="448" y="536" name="top"/>
  <outline>
    <contour>
      <point x="304" y="-174" type="line"/>
      <point x="466" y="-174" type="line"/>
      <point x="466" y="100" type="line"/>
      <point x="304" y="100" type="line"/>
    </contour>
    <component base="thoThung-thai"/>
  </outline>
</glyph>
<glyph name="ru_lakkhangyao-thai" format="2">
  <advance width="785"/>
  <outline>
    <contour>
      <point x="304" y="-214" type="line"/>
      <point x="466" y="-214" type="line"/>
      <point x="466" y="331" type="line" smooth="yes"/>
      <point x="466" y="400"/>
      <point x="479" y="432"/>
      <point x="518" y="432" type="curve" smooth="yes"/>
      <point x="558" y="432"/>
      <point x="571" y="400"/>
      <point x="571" y="332" type="curve" smooth="yes"/>
      <point x="571" y="-214" type="line"/>
      <point x="733" y="-214" type="line"/>
      <point x="733" y="354" type="line" smooth="yes"/>
      <point x="733" y="478"/>
      <point x="679" y="562"/>
      <point x="548" y="562" type="curve" smooth="yes"/>
      <point x="474" y="562"/>
      <point x="423" y="529"/>
      <point x="396" y="473" type="curve"/>
      <point x="393" y="473" type="line"/>
      <point x="366" y="530"/>
      <point x="314" y="562"/>
      <point x="237" y="562" type="curve" smooth="yes"/>
      <point x="111" y="562"/>
      <point x="37" y="479"/>
      <point x="37" y="377" type="curve" smooth="yes"/>
      <point x="37" y="353" type="line"/>
      <point x="119" y="314" type="line"/>
      <point x="118" y="310" type="line"/>
      <point x="65" y="290"/>
      <point x="39" y="254"/>
      <point x="39" y="177" type="curve" smooth="yes"/>
      <point x="39" y="123" type="line" smooth="yes"/>
      <point x="39" y="35"/>
      <point x="83" y="-10"/>
      <point x="173" y="-10" type="curve" smooth="yes"/>
      <point x="212" y="-10"/>
      <point x="244" y="-2"/>
      <point x="263" y="11" type="curve"/>
      <point x="251" y="105" type="line"/>
      <point x="244" y="101"/>
      <point x="235" y="99"/>
      <point x="226" y="99" type="curve" smooth="yes"/>
      <point x="204" y="99"/>
      <point x="196" y="111"/>
      <point x="196" y="140" type="curve" smooth="yes"/>
      <point x="196" y="196" type="line" smooth="yes"/>
      <point x="196" y="247"/>
      <point x="207" y="264"/>
      <point x="244" y="266" type="curve"/>
      <point x="254" y="333" type="line"/>
      <point x="204" y="370" type="line"/>
      <point x="207" y="404"/>
      <point x="215" y="432"/>
      <point x="250" y="432" type="curve" smooth="yes"/>
      <point x="292" y="432"/>
      <point x="304" y="400"/>
      <point x="304" y="335" type="curve" smooth="yes"/>
    </contour>
  </outline>
</glyph>
<glyph name="saraI-thai.narrow" format="2">
  <anchor x="-242" y="536" name="_top"/>
  <anchor x="-242" y="713" name="top"/>
  <outline>
    <contour>
      <point x="-555" y="622" type="line"/>
      <point x="-242" y="622" type="line"/>
      <point x="-242" y="734" type="line"/>
      <point x="-482" y="734" type="line"/>
      <point x="-555" y="689" type="line"/>
    </contour>
  </outline>
</glyph>
<glyph name="saraIi-thai.narrow" format="2">
  <anchor x="-242" y="536" name="_top"/>
  <anchor x="-242" y="772" name="top"/>
  <outline>
    <contour>
      <point x="-555" y="622" type="line"/>
      <point x="-242" y="622" type="line"/>
      <point x="-242" y="726" type="line"/>
      <point x="-482" y="726" type="line"/>
      <point x="-555" y="681" type="line"/>
    </contour>
    <contour>
      <point x="-367" y="687" type="line"/>
      <point x="-242" y="687" type="line"/>
      <point x="-242" y="800" type="line"/>
      <point x="-367" y="800" type="line"/>
    </contour>
  </outline>
</glyph>
<glyph name="saraUe-thai.narrow" format="2">
  <anchor x="-242" y="536" name="_top"/>
  <anchor x="-242" y="772" name="top"/>
  <outline>
    <contour>
      <point x="-555" y="622" type="line"/>
      <point x="-316" y="622" type="line" smooth="yes"/>
      <point x="-258" y="622"/>
      <point x="-232" y="663"/>
      <point x="-232" y="717" type="curve" smooth="yes"/>
      <point x="-232" y="773"/>
      <point x="-263" y="814"/>
      <point x="-314" y="814" type="curve" smooth="yes"/>
      <point x="-364" y="814"/>
      <point x="-394" y="776"/>
      <point x="-394" y="726" type="curve" smooth="yes"/>
      <point x="-394" y="716"/>
      <point x="-392" y="704"/>
      <point x="-390" y="692" type="curve"/>
      <point x="-359" y="726" type="line"/>
      <point x="-482" y="726" type="line"/>
      <point x="-555" y="681" type="line"/>
    </contour>
    <contour>
      <point x="-315" y="677" type="curve" smooth="yes"/>
      <point x="-337" y="677"/>
      <point x="-348" y="695"/>
      <point x="-348" y="718" type="curve" smooth="yes"/>
      <point x="-348" y="740"/>
      <point x="-336" y="757"/>
      <point x="-317" y="757" type="curve" smooth="yes"/>
      <point x="-297" y="757"/>
      <point x="-285" y="740"/>
      <point x="-285" y="716" type="curve" smooth="yes"/>
      <point x="-285" y="694"/>
      <point x="-295" y="677"/>
    </contour>
  </outline>
</glyph>
<glyph name="saraUee-thai.narrow" format="2">
  <anchor x="-242" y="536" name="_top"/>
  <anchor x="-259" y="772" name="top"/>
  <outline>
    <contour>
      <point x="-555" y="622" type="line"/>
      <point x="-242" y="622" type="line"/>
      <point x="-242" y="726" type="line"/>
      <point x="-482" y="726" type="line"/>
      <point x="-555" y="681" type="line"/>
    </contour>
    <contour>
      <point x="-417" y="710" type="line"/>
      <point x="-346" y="710" type="line"/>
      <point x="-346" y="800" type="line"/>
      <point x="-417" y="800" type="line"/>
    </contour>
    <contour>
      <point x="-313" y="710" type="line"/>
      <point x="-242" y="710" type="line"/>
      <point x="-242" y="800" type="line"/>
      <point x="-313" y="800" type="line"/>
    </contour>
  </outline>
</glyph>
<glyph name="thanthakhat-thai.narrow" format="2">
  <anchor x="-239" y="536" name="_top"/>
  <anchor x="-237" y="755" name="top"/>
  <outline>
    <contour>
      <point x="-428" y="601" type="curve"/>
      <point x="-307" y="623" type="line"/>
      <point x="-311" y="633"/>
      <point x="-313" y="643"/>
      <point x="-313" y="653" type="curve" smooth="yes"/>
      <point x="-313" y="674"/>
      <point x="-302" y="682"/>
      <point x="-283" y="682" type="curve" smooth="yes"/>
      <point x="-246" y="682" type="line"/>
      <point x="-246" y="790" type="line"/>
      <point x="-332" y="790" type="line" smooth="yes"/>
      <point x="-412" y="790"/>
      <point x="-446" y="743"/>
      <point x="-446" y="685" type="curve" smooth="yes"/>
      <point x="-446" y="653"/>
      <point x="-439" y="621"/>
    </contour>
  </outline>
</glyph>
<glyph name="thanthakhat-thai.small" format="2">
  <anchor x="-56" y="772" name="_top"/>
  <anchor x="-56" y="1042" name="top"/>
  <outline>
    <contour>
      <point x="-191" y="830" type="curve"/>
      <point x="-88" y="855" type="line"/>
      <point x="-93" y="866"/>
      <point x="-95" y="881"/>
      <point x="-95" y="891" type="curve" smooth="yes"/>
      <point x="-95" y="916"/>
      <point x="-83" y="928"/>
      <point x="-53" y="928" type="curve" smooth="yes"/>
      <point x="15" y="928" type="line"/>
      <point x="15" y="1020" type="line"/>
      <point x="-62" y="1020" type="line" smooth="yes"/>
      <point x="-182" y="1020"/>
      <point x="-213" y="970"/>
      <point x="-213" y="916" type="curve" smooth="yes"/>
      <point x="-213" y="888"/>
      <point x="-206" y="856"/>
    </contour>
  </outline>
</glyph>
<glyph name="thoThan-thai.less" format="2">
  <advance width="473"/>
  <anchor x="383" y="0" name="bottom"/>
  <anchor x="438" y="536" name="top"/>
  <outline>
    <contour>
      <point x="75" y="0" type="line"/>
      <point x="206" y="0" type="line" smooth="yes"/>
      <point x="373" y="0"/>
      <point x="444" y="104"/>
      <point x="444" y="270" type="curve" smooth="yes"/>
      <point x="444" y="389"/>
      <point x="404" y="454"/>
      <point x="358" y="475" type="curve"/>
      <point x="344" y="541"/>
      <point x="284" y="562"/>
      <point x="207" y="562" type="curve" smooth="yes"/>
      <point x="127" y="562"/>
      <point x="76" y="541"/>
      <point x="38" y="519" type="curve"/>
      <point x="38" y="385" type="line"/>
      <point x="67" y="411"/>
      <point x="109" y="434"/>
      <point x="171" y="434" type="curve" smooth="yes"/>
      <point x="233" y="434"/>
      <point x="280" y="394"/>
      <point x="280" y="275" type="curve" smooth="yes"/>
      <point x="280" y="175"/>
      <point x="254" y="122"/>
      <point x="219" y="122" type="curve" smooth="yes"/>
      <point x="218" y="122" type="line"/>
      <point x="218" y="323" type="line"/>
      <point x="43" y="323" type="line"/>
      <point x="43" y="227" type="line"/>
      <point x="75" y="227" type="line"/>
    </contour>
    <contour>
      <point x="352" y="432" type="line"/>
      <point x="442" y="461"/>
      <point x="461" y="522"/>
      <point x="461" y="584" type="curve"/>
      <point x="337" y="584" type="line"/>
      <point x="335" y="549"/>
      <point x="320" y="524"/>
      <point x="293" y="506" type="curve"/>
    </contour>
  </outline>
</glyph>
<glyph name="toPatak-thai.short" format="2">
  <advance width="535"/>
  <anchor x="483" y="-157" name="bottom"/>
  <anchor x="452" y="536" name="top"/>
  <outline>
    <contour>
      <point x="40" y="-181" type="line"/>
      <point x="160" y="-181" type="line"/>
      <point x="160" y="-176" type="line" smooth="yes"/>
      <point x="160" y="-156"/>
      <point x="162" y="-129"/>
      <point x="185" y="-129" type="curve" smooth="yes"/>
      <point x="207" y="-129"/>
      <point x="222" y="-155"/>
      <point x="230" y="-181" type="curve"/>
      <point x="266" y="-181" type="line"/>
      <point x="299" y="-130" type="line"/>
      <point x="351" y="-181" type="line"/>
      <point x="483" y="-181" type="line"/>
      <point x="483" y="346" type="line" smooth="yes"/>
      <point x="483" y="489"/>
      <point x="414" y="562"/>
      <point x="270" y="562" type="curve" smooth="yes"/>
      <point x="123" y="562"/>
      <point x="54" y="479"/>
      <point x="54" y="377" type="curve" smooth="yes"/>
      <point x="54" y="353" type="line"/>
      <point x="136" y="314" type="line"/>
      <point x="135" y="310" type="line"/>
      <point x="94" y="296"/>
      <point x="77" y="261"/>
      <point x="77" y="199" type="curve" smooth="yes"/>
      <point x="77" y="137" type="line" smooth="yes"/>
      <point x="77" y="114"/>
      <point x="69" y="103"/>
      <point x="51" y="103" type="curve" smooth="yes"/>
      <point x="46" y="103"/>
      <point x="41" y="104"/>
      <point x="35" y="107" type="curve"/>
      <point x="21" y="19" type="line"/>
      <point x="40" y="7"/>
      <point x="71" y="-3"/>
      <point x="110" y="-3" type="curve" smooth="yes"/>
      <point x="183" y="-3"/>
      <point x="234" y="31"/>
      <point x="234" y="118" type="curve" smooth="yes"/>
      <point x="234" y="192" type="line" smooth="yes"/>
      <point x="234" y="243"/>
      <point x="238" y="265"/>
      <point x="261" y="266" type="curve"/>
      <point x="271" y="334" type="line"/>
      <point x="221" y="370" type="line"/>
      <point x="224" y="404"/>
      <point x="232" y="432"/>
      <point x="267" y="432" type="curve" smooth="yes"/>
      <point x="309" y="432"/>
      <point x="321" y="400"/>
      <point x="321" y="337" type="curve" smooth="yes"/>
      <point x="321" y="-93" type="line"/>
      <point x="335" y="-88" type="line"/>
      <point x="283" y="-34" type="line"/>
      <point x="243" y="-86" type="line"/>
      <point x="219" y="-42"/>
      <point x="185" y="-21"/>
      <point x="145" y="-21" type="curve" smooth="yes"/>
      <point x="85" y="-21"/>
      <point x="40" y="-47"/>
      <point x="40" y="-144" type="curve" smooth="yes"/>
    </contour>
  </outline>
</glyph>
<glyph name="yoYing-thai.less" format="2">
  <advance width="743"/>
  <anchor x="687" y="0" name="bottom"/>
  <anchor x="691" y="536" name="top"/>
  <outline>
    <contour>
      <point x="492" y="-14" type="curve" smooth="yes"/>
      <point x="626" y="-14"/>
      <point x="691" y="57"/>
      <point x="691" y="215" type="curve" smooth="yes"/>
      <point x="691" y="548" type="line"/>
      <point x="529" y="548" type="line"/>
      <point x="529" y="201" type="line" smooth="yes"/>
      <point x="529" y="140"/>
      <point x="511" y="116"/>
      <point x="490" y="116" type="curve" smooth="yes"/>
      <point x="468" y="116"/>
      <point x="451" y="140"/>
      <point x="451" y="201" type="curve" smooth="yes"/>
      <point x="451" y="362" type="line" smooth="yes"/>
      <point x="451" y="495"/>
      <point x="378" y="562"/>
      <point x="247" y="562" type="curve" smooth="yes"/>
      <point x="109" y="562"/>
      <point x="37" y="481"/>
      <point x="37" y="377" type="curve" smooth="yes"/>
      <point x="37" y="353" type="line"/>
      <point x="119" y="314" type="line"/>
      <point x="118" y="310" type="line"/>
      <point x="65" y="290"/>
      <point x="39" y="258"/>
      <point x="39" y="181" type="curve" smooth="yes"/>
      <point x="39" y="123" type="line" smooth="yes"/>
      <point x="39" y="35"/>
      <point x="83" y="-10"/>
      <point x="173" y="-10" type="curve" smooth="yes"/>
      <point x="212" y="-10"/>
      <point x="244" y="-2"/>
      <point x="263" y="11" type="curve"/>
      <point x="251" y="105" type="line"/>
      <point x="244" y="101"/>
      <point x="235" y="99"/>
      <point x="226" y="99" type="curve" smooth="yes"/>
      <point x="204" y="99"/>
      <point x="196" y="111"/>
      <point x="196" y="140" type="curve" smooth="yes"/>
      <point x="196" y="196" type="line" smooth="yes"/>
      <point x="196" y="247"/>
      <point x="207" y="264"/>
      <point x="244" y="266" type="curve"/>
      <point x="254" y="334" type="line"/>
      <point x="204" y="374" type="line"/>
      <point x="208" y="414"/>
      <point x="220" y="435"/>
      <point x="247" y="435" type="curve" smooth="yes"/>
      <point x="279" y="435"/>
      <point x="292" y="412"/>
      <point x="292" y="347" type="curve" smooth="yes"/>
      <point x="292" y="215" type="line" smooth="yes"/>
      <point x="292" y="57"/>
      <point x="357" y="-14"/>
    </contour>
  </outline>
</glyph>
